<svg width="170" height="31" viewBox="0 0 170 31" fill="none" xmlns="http://www.w3.org/2000/svg">
<path d="M58.5283 11.9488V11.3473H67.186V11.9488H63.1975V22.6481H62.5011V11.9488H58.5283Z" fill="#7B7B7B"/>
<path d="M67.9545 11.3473H72.6712C73.1671 11.3473 73.6314 11.4001 74.064 11.5056C74.4966 11.6006 74.8765 11.7641 75.2036 11.9962C75.5307 12.2178 75.784 12.5133 75.9633 12.8826C76.1533 13.2519 76.2482 13.7109 76.2482 14.2596C76.2482 15.0193 76.0319 15.6629 75.5993 16.1905C75.1772 16.7075 74.5863 17.0293 73.8266 17.156V17.1876C74.3436 17.2509 74.7499 17.3881 75.0453 17.5991C75.3513 17.8102 75.5782 18.0687 75.7259 18.3747C75.8736 18.6807 75.9686 19.0183 76.0108 19.3876C76.053 19.7569 76.0741 20.1262 76.0741 20.4956C76.0741 20.7171 76.0741 20.9334 76.0741 21.1445C76.0741 21.3555 76.0847 21.556 76.1058 21.7459C76.1269 21.9253 76.1585 22.0941 76.2007 22.2524C76.2535 22.4107 76.3221 22.5426 76.4065 22.6481H75.631C75.4832 22.3843 75.3988 22.0783 75.3777 21.7301C75.3672 21.3713 75.3619 21.002 75.3619 20.6222C75.3619 20.2423 75.3461 19.8677 75.3144 19.4984C75.2827 19.1186 75.1825 18.7809 75.0137 18.4855C74.8448 18.19 74.5758 17.9526 74.2065 17.7732C73.8477 17.5939 73.3359 17.5042 72.6712 17.5042H68.651V22.6481H67.9545V11.3473ZM72.6712 16.9027C73.0827 16.9027 73.4626 16.8552 73.8108 16.7603C74.1695 16.6548 74.4755 16.4965 74.7288 16.2855C74.982 16.0744 75.1825 15.8054 75.3302 15.4783C75.478 15.1512 75.5518 14.7608 75.5518 14.307C75.5518 13.885 75.4727 13.5262 75.3144 13.2308C75.1561 12.9248 74.9451 12.6768 74.6813 12.4869C74.4175 12.297 74.1115 12.1598 73.7633 12.0754C73.4151 11.991 73.051 11.9488 72.6712 11.9488H68.651V16.9027H72.6712Z" fill="#7B7B7B"/>
<path d="M81.2796 11.3473H82.0393L86.5027 22.6481H85.7588L84.3343 19.0236H78.9212L77.4809 22.6481H76.737L81.2796 11.3473ZM84.1127 18.4222L81.6911 12.0279H81.6594L79.1428 18.4222H84.1127Z" fill="#7B7B7B"/>
<path d="M86.6007 16.9977C86.6007 16.1747 86.7221 15.4044 86.9648 14.6869C87.2075 13.9588 87.5557 13.331 88.0094 12.8034C88.4737 12.2653 89.0382 11.8432 89.703 11.5372C90.3783 11.2312 91.138 11.0782 91.9821 11.0782C92.6469 11.0782 93.222 11.1679 93.7074 11.3473C94.1927 11.5161 94.599 11.7324 94.9261 11.9962C95.2637 12.2495 95.5381 12.5291 95.7491 12.8351C95.9602 13.1411 96.1184 13.4313 96.2239 13.7056C96.34 13.9694 96.4192 14.2015 96.4614 14.402C96.5036 14.5919 96.5247 14.6974 96.5247 14.7185H95.8283C95.7544 14.2437 95.6014 13.8217 95.3693 13.4524C95.1371 13.0725 94.8469 12.7507 94.4987 12.4869C94.1505 12.2231 93.7601 12.0226 93.3275 11.8854C92.9054 11.7483 92.457 11.6797 91.9821 11.6797C91.2435 11.6797 90.584 11.8221 90.0037 12.107C89.4233 12.3919 88.9327 12.7771 88.5317 13.2624C88.1307 13.7372 87.8247 14.2965 87.6137 14.9401C87.4027 15.5838 87.2972 16.2696 87.2972 16.9977C87.2972 17.7258 87.4027 18.4116 87.6137 19.0553C87.8247 19.6989 88.1307 20.2634 88.5317 20.7488C88.9327 21.2236 89.4233 21.6035 90.0037 21.8884C90.584 22.1733 91.2435 22.3157 91.9821 22.3157C92.5308 22.3157 93.0426 22.2049 93.5174 21.9833C94.0028 21.7512 94.4249 21.4505 94.7836 21.0812C95.1424 20.7013 95.4273 20.2687 95.6383 19.7833C95.8599 19.2874 95.9865 18.7756 96.0182 18.2481H96.7146C96.6513 18.9234 96.4825 19.5459 96.2081 20.1157C95.9443 20.6855 95.6014 21.1814 95.1793 21.6035C94.7678 22.015 94.2877 22.3368 93.739 22.5689C93.1903 22.8011 92.6047 22.9171 91.9821 22.9171C91.138 22.9171 90.3783 22.7641 89.703 22.4581C89.0382 22.1522 88.4737 21.7354 88.0094 21.2078C87.5557 20.6697 87.2075 20.0418 86.9648 19.3243C86.7221 18.5963 86.6007 17.8207 86.6007 16.9977Z" fill="#7B7B7B"/>
<path d="M98.1724 11.3473H98.8688V17.8524L105.975 11.3473H106.878L101.718 16.0481L107.194 22.6481H106.324L101.211 16.5229L98.8688 18.6596V22.6481H98.1724V11.3473Z" fill="#7B7B7B"/>
<path d="M108.117 11.3473H115.92V12.6135H109.62V16.2063H115.492V17.4725H109.62V21.3819H115.967V22.6481H108.117V11.3473Z" fill="#7B7B7B"/>
<path d="M117.777 11.3473H119.375L125.326 20.5114H125.358V11.3473H126.783V22.6481H125.136L119.233 13.579H119.201V22.6481H117.777V11.3473Z" fill="#7B7B7B"/>
<path d="M135.752 14.6552C135.667 13.8428 135.372 13.2572 134.865 12.8984C134.369 12.5291 133.731 12.3444 132.95 12.3444C132.634 12.3444 132.322 12.3761 132.016 12.4394C131.71 12.5027 131.436 12.6082 131.193 12.756C130.961 12.9037 130.771 13.1042 130.624 13.3574C130.486 13.6001 130.418 13.9061 130.418 14.2754C130.418 14.6236 130.518 14.9085 130.719 15.1301C130.93 15.3411 131.204 15.5152 131.542 15.6524C131.89 15.7895 132.28 15.9056 132.713 16.0006C133.145 16.085 133.583 16.1799 134.027 16.2855C134.48 16.391 134.923 16.5176 135.356 16.6653C135.789 16.8025 136.174 16.9924 136.511 17.2351C136.86 17.4778 137.134 17.7838 137.335 18.1531C137.546 18.5224 137.651 18.9867 137.651 19.5459C137.651 20.1473 137.514 20.6644 137.24 21.097C136.976 21.5191 136.633 21.8673 136.211 22.1416C135.789 22.4054 135.314 22.5953 134.786 22.7114C134.269 22.838 133.752 22.9013 133.235 22.9013C132.602 22.9013 132.001 22.8222 131.431 22.6639C130.872 22.5056 130.376 22.2682 129.943 21.9517C129.521 21.6246 129.183 21.2131 128.93 20.7171C128.687 20.2107 128.566 19.6145 128.566 18.9286H129.99C129.99 19.4035 130.08 19.815 130.26 20.1632C130.449 20.5008 130.692 20.7804 130.988 21.002C131.294 21.2236 131.647 21.3872 132.048 21.4927C132.449 21.5982 132.861 21.651 133.283 21.651C133.62 21.651 133.958 21.6193 134.296 21.556C134.644 21.4927 134.955 21.3872 135.229 21.2394C135.504 21.0812 135.725 20.8701 135.894 20.6063C136.063 20.3426 136.147 20.0049 136.147 19.5934C136.147 19.203 136.042 18.8864 135.831 18.6437C135.63 18.4011 135.356 18.2059 135.008 18.0581C134.67 17.8999 134.285 17.7732 133.852 17.6783C133.42 17.5833 132.977 17.4883 132.523 17.3934C132.08 17.2879 131.642 17.1718 131.209 17.0452C130.777 16.908 130.386 16.7339 130.038 16.5229C129.7 16.3013 129.426 16.0217 129.215 15.684C129.014 15.3358 128.914 14.9032 128.914 14.3862C128.914 13.8164 129.03 13.3257 129.262 12.9142C129.495 12.4922 129.801 12.1492 130.18 11.8854C130.571 11.6111 131.009 11.4106 131.494 11.284C131.99 11.1468 132.497 11.0782 133.014 11.0782C133.594 11.0782 134.132 11.1468 134.628 11.284C135.124 11.4212 135.557 11.6375 135.926 11.9329C136.306 12.2284 136.601 12.603 136.812 13.0567C137.034 13.4998 137.155 14.0327 137.176 14.6552H135.752Z" fill="#7B7B7B"/>
<path d="M148.5 18.5646C148.5 20.0102 148.115 21.097 147.345 21.8251C146.574 22.5426 145.477 22.9013 144.052 22.9013C142.596 22.9013 141.457 22.5584 140.634 21.8725C139.821 21.1761 139.415 20.0735 139.415 18.5646V11.3473H140.918V18.5646C140.918 19.5776 141.188 20.3478 141.726 20.8754C142.264 21.3924 143.039 21.651 144.052 21.651C145.013 21.651 145.741 21.3924 146.237 20.8754C146.743 20.3478 146.996 19.5776 146.996 18.5646V11.3473H148.5V18.5646Z" fill="#7B7B7B"/>
<path d="M150.901 11.3473H156.219C157.295 11.3473 158.134 11.6111 158.735 12.1387C159.347 12.6663 159.653 13.389 159.653 14.307C159.653 14.9929 159.495 15.5943 159.179 16.1114C158.873 16.6284 158.377 16.9819 157.691 17.1718V17.2035C158.018 17.2668 158.282 17.3723 158.482 17.52C158.693 17.6677 158.857 17.8471 158.973 18.0581C159.099 18.2586 159.189 18.4855 159.242 18.7387C159.305 18.9919 159.353 19.2557 159.384 19.5301C159.405 19.8044 159.421 20.084 159.432 20.3689C159.442 20.6538 159.469 20.9334 159.511 21.2078C159.553 21.4821 159.611 21.7459 159.685 21.9992C159.769 22.2418 159.891 22.4581 160.049 22.6481H158.371C158.266 22.532 158.192 22.3737 158.15 22.1733C158.118 21.9728 158.097 21.7512 158.086 21.5085C158.076 21.2553 158.065 20.9862 158.055 20.7013C158.044 20.4164 158.013 20.1368 157.96 19.8625C157.918 19.5881 157.865 19.3296 157.801 19.0869C157.738 18.8337 157.638 18.6174 157.501 18.438C157.364 18.2481 157.184 18.1003 156.963 17.9948C156.741 17.8788 156.446 17.8207 156.076 17.8207H152.404V22.6481H150.901V11.3473ZM155.538 16.5545C155.886 16.5545 156.219 16.5281 156.535 16.4754C156.852 16.4226 157.126 16.3224 157.358 16.1747C157.601 16.0164 157.791 15.8106 157.928 15.5574C158.076 15.2936 158.15 14.956 158.15 14.5444C158.15 13.9747 157.991 13.5104 157.675 13.1516C157.358 12.7929 156.847 12.6135 156.14 12.6135H152.404V16.5545H155.538Z" fill="#7B7B7B"/>
<path d="M161.736 11.3473H169.539V12.6135H163.239V16.2063H169.111V17.4725H163.239V21.3819H169.586V22.6481H161.736V11.3473Z" fill="#7B7B7B"/>
<path d="M54.1357 0C52.3916 4.65508 50.2137 9.32681 46.7891 12.9844C42.9319 16.0308 38.5652 18.5041 35.1992 22.1465C33.596 24.7011 33.0872 28.0101 31.7969 30.5986C29.6451 28.7629 27.6511 26.6495 25.4258 24.8916C21.1361 23.7374 16.6233 24.2561 12.2314 24.1094C7.50278 23.3151 3.53808 20.1739 0 17.1035C3.87832 18.1675 7.81151 16.4664 11.3184 14.9219C14.6096 13.5818 18.2916 12.6353 21.8135 13.5889C22.6687 10.6756 24.8126 7.89774 27.9053 7.28027C30.1841 6.74828 32.6107 7.7506 34.1143 9.49707C34.3225 9.83334 34.5979 9.4685 34.7861 9.30664C37.4478 6.7307 41.0332 5.46076 44.5488 4.58496C48.0009 3.85973 51.5128 2.63536 54.0498 0.0644531L54.1357 0ZM34.6963 16.7197C35.4081 12.9593 32.3217 8.48184 28.2314 9.36621C24.1635 10.1818 22.0628 15.1274 23.418 18.874C24.9202 22.6119 28.2446 25.1743 31.2441 27.5859C32.4971 24.0037 34.1515 20.509 34.6963 16.7197ZM28.7314 13.5166C31.4616 13.0285 32.698 16.8209 31.3691 18.7959C30.7944 19.9151 29.3495 20.5814 28.1826 19.9854C25.7047 18.714 25.989 14.2657 28.7314 13.5166Z" fill="#7B7B7B"/>
</svg>
