<svg width="125" height="33" viewBox="0 0 125 33" fill="none" xmlns="http://www.w3.org/2000/svg">
<path d="M32.7924 14.6701C32.7439 14.3941 32.7324 14.1088 32.6839 13.8328C32.6032 13.3521 32.5039 12.8714 32.3839 12.3975C32.1485 11.4591 31.83 10.5505 31.4307 9.66957C30.976 8.67361 30.436 7.72595 29.7897 6.83809C29.5059 6.44707 29.2081 6.06755 28.892 5.69952C28.4996 5.24179 28.0726 4.81397 27.6341 4.39994C27.2879 4.07332 26.9233 3.7674 26.5471 3.47528C25.9055 2.97845 25.2338 2.52763 24.5253 2.1251C23.856 1.74558 23.1659 1.41666 22.4527 1.13374C21.8181 0.880725 21.1649 0.671414 20.5002 0.508104C19.8286 0.342494 18.2846 0.0572751 17.1767 0.0181727C16.5975 -0.00252852 16.0158 -0.0163285 15.4342 0.0388749C15.095 0.0710769 14.7534 0.0963788 14.4141 0.130881C13.9179 0.181484 13.4263 0.266589 12.9416 0.376996C12.0046 0.586309 11.0883 0.866925 10.1998 1.23265C9.31584 1.59607 8.47112 2.0354 7.66334 2.54143C6.85555 3.04976 6.09623 3.62709 5.3923 4.26883C4.79223 4.81627 4.22678 5.3982 3.71672 6.03074C3.13512 6.74839 2.6089 7.50283 2.15654 8.30788C1.68111 9.15204 1.2749 10.0238 0.947172 10.9369C0.416342 12.4205 0.111691 13.9501 0.0262969 15.5188C-0.0106304 16.2066 -0.0129375 16.8989 0.0470695 17.5913C0.077073 17.9455 0.183239 19.0656 0.268633 19.2773C0.510969 19.2773 10.9683 19.2773 11.1276 19.2773C11.3122 19.5556 11.483 19.8178 11.693 20.0501C12.1385 20.5446 12.6347 20.9794 13.214 21.3152C13.9456 21.7384 14.7326 22.0006 15.5727 22.0788C16.0389 22.1225 16.5097 22.1179 16.9783 22.0535C17.5968 21.9684 18.183 21.7936 18.7439 21.5245C19.4409 21.1864 20.0525 20.7332 20.5718 20.1536C20.9318 19.7511 21.2341 19.3141 21.4765 18.8333C21.8204 18.1502 22.0188 17.421 22.0789 16.6597C22.1135 16.2158 22.1065 15.7672 22.0327 15.3256C21.9081 14.5896 21.6773 13.888 21.2988 13.2394C20.8833 12.5309 20.3479 11.9283 19.6878 11.4407C19.1154 11.0151 18.4807 10.7069 17.793 10.5137C17.3475 10.3895 16.8952 10.3021 16.4313 10.3044C16.2074 10.3044 15.3719 10.3366 15.1827 10.3711C14.451 10.5045 13.761 10.7506 13.1263 11.1394C12.517 11.512 11.9861 11.972 11.5453 12.5332C11.2684 12.8852 11.033 13.2624 10.8414 13.6672C10.8068 13.7385 10.7883 13.8236 10.7191 13.8719C10.2852 13.8949 5.86082 13.8857 5.67387 13.8604C5.72234 13.5683 5.81235 13.2877 5.90006 13.0071C6.15855 12.1882 6.51628 11.4131 6.9571 10.6793C7.29406 10.1181 7.67488 9.58446 8.11801 9.09913C8.47805 8.70351 8.85886 8.32398 9.26737 7.97666C9.90667 7.43383 10.5991 6.9761 11.3422 6.59198C12.1385 6.18025 12.9786 5.88353 13.851 5.67652C14.4534 5.53391 15.065 5.44421 15.6789 5.4143C16.4382 5.3775 17.1952 5.4028 17.9499 5.52471C18.4946 5.61442 19.03 5.72942 19.5563 5.89273C20.364 6.14115 21.1303 6.48157 21.855 6.914C22.4066 7.24292 22.9259 7.61324 23.4129 8.02956C23.8952 8.44129 24.3407 8.89212 24.7422 9.37975C25.1507 9.87428 25.5085 10.401 25.8247 10.9599C26.2609 11.7351 26.5955 12.5493 26.8333 13.4027C26.9579 13.8443 27.0456 14.2952 27.1125 14.7506C27.1771 15.1991 27.2141 15.6499 27.2302 16.1008C27.2487 16.5976 27.2071 17.0944 27.1541 17.589C27.1171 17.9202 27.0664 18.2514 26.9971 18.5757C26.7917 19.5303 26.4709 20.4434 26.0208 21.3129C25.4162 22.4791 24.6361 23.5095 23.6598 24.3928C23.1497 24.8528 22.6051 25.2645 22.0235 25.6279C21.5734 25.9086 21.1026 26.1501 20.6179 26.3594C19.9348 26.6538 19.2262 26.8769 18.4946 27.0241C18.0492 27.1138 17.6014 27.192 17.149 27.2104C16.272 27.2472 15.3927 27.2518 14.5203 27.0931C13.9779 26.9942 13.4425 26.8769 12.9209 26.7044C12.3116 26.5043 11.723 26.2582 11.1599 25.95C10.7422 25.72 10.3313 25.4784 9.94822 25.1932C9.77512 25.0644 9.60202 24.9379 9.43123 24.8137C9.17967 24.9586 5.02303 27.9856 4.8984 28.1144C4.91456 28.1627 4.9561 28.1972 4.99303 28.2317C5.18459 28.418 5.38076 28.602 5.58156 28.7791C6.09392 29.2346 6.63629 29.6509 7.20175 30.0373C7.92875 30.5341 8.69038 30.9689 9.48893 31.3392C9.93437 31.5462 10.3867 31.7348 10.8483 31.905C11.603 32.181 12.3762 32.395 13.1632 32.556C13.5786 32.6411 13.9941 32.7124 14.4164 32.7584C15.2104 32.8435 16.5397 32.9378 18.0468 32.8044C18.4023 32.7722 18.7554 32.7193 19.1062 32.6664C19.8124 32.5606 20.5048 32.3927 21.188 32.188C22.4343 31.8176 23.6183 31.2978 24.7399 30.6423C25.7324 30.0626 26.6555 29.3841 27.5049 28.6089C28.1003 28.0661 28.6588 27.4888 29.1666 26.8631C29.7874 26.0995 30.346 25.2944 30.8191 24.4319C31.4584 23.268 31.9708 22.0535 32.31 20.77C32.4508 20.2387 32.5755 19.7074 32.6609 19.1646C32.7139 18.8287 32.7578 18.4906 32.7993 18.1525C32.834 17.8719 32.857 17.5913 32.8663 17.3106C32.887 16.731 32.8386 14.9277 32.7924 14.6632V14.6701Z" fill="#FED85B"/>
<path d="M118.618 19.6981C118.874 19.3094 119.001 18.8344 119.001 18.2729C119.001 17.8102 118.911 17.4215 118.736 17.1037C118.56 16.786 118.328 16.5268 118.041 16.3201C117.754 16.1134 117.431 15.9499 117.067 15.8265C116.703 15.7062 116.329 15.6013 115.953 15.515C115.564 15.4286 115.188 15.3515 114.821 15.2774C114.457 15.2034 114.13 15.117 113.843 15.0121C113.556 14.9103 113.324 14.7777 113.149 14.6203C112.973 14.463 112.883 14.2563 112.883 14.0002C112.883 13.7936 112.945 13.627 113.065 13.4974C113.186 13.3709 113.337 13.2722 113.513 13.2043C113.688 13.1365 113.877 13.0933 114.077 13.0686C114.278 13.0439 114.45 13.0316 114.599 13.0316C115.061 13.0316 115.472 13.118 115.829 13.2876C116.187 13.4573 116.416 13.7936 116.514 14.2902H118.686C118.624 13.7658 118.476 13.3185 118.239 12.9483C118.001 12.5781 117.702 12.2758 117.344 12.0444C116.986 11.813 116.582 11.6464 116.138 11.5415C115.694 11.4397 115.228 11.3873 114.74 11.3873C114.315 11.3873 113.867 11.4305 113.398 11.5138C112.93 11.6002 112.504 11.7482 112.121 11.9611C111.739 12.174 111.421 12.4547 111.171 12.8002C110.921 13.1457 110.798 13.5745 110.798 14.0866C110.798 14.5617 110.881 14.9597 111.054 15.2836C111.224 15.6075 111.452 15.8697 111.739 16.0764C112.026 16.2831 112.347 16.4466 112.707 16.57C113.065 16.6903 113.442 16.7952 113.83 16.8816C114.207 16.968 114.58 17.0451 114.944 17.1191C115.308 17.1932 115.635 17.2795 115.922 17.3844C116.209 17.4893 116.443 17.6251 116.625 17.7947C116.807 17.9644 116.906 18.1834 116.918 18.4518C116.931 18.7202 116.866 18.9362 116.727 19.0997C116.588 19.2632 116.406 19.3896 116.187 19.4729C115.968 19.5593 115.734 19.6148 115.484 19.6457C115.234 19.6765 115.012 19.692 114.818 19.692C114.256 19.692 113.778 19.5717 113.377 19.3279C112.976 19.0842 112.744 18.6585 112.683 18.0508H110.6C110.613 18.6092 110.724 19.0935 110.937 19.5007C111.15 19.9079 111.443 20.2503 111.813 20.5218C112.183 20.7964 112.621 21 113.127 21.1326C113.633 21.2653 114.182 21.3332 114.777 21.3332C115.265 21.3332 115.755 21.2776 116.255 21.1697C116.755 21.0617 117.208 20.8828 117.616 20.639C118.023 20.3953 118.356 20.0807 118.609 19.6889L118.618 19.6981ZM62.5457 11.6495H60.1363L58.0725 14.5525L56.1012 11.6495H53.5838L56.8508 16.1227L53.2908 21.0864H55.7372L58.054 17.6004L60.4448 21.0864H62.9468L59.3312 16.0116L62.5426 11.6495H62.5457ZM122.561 8.81754H120.482V11.6464H118.911V13.1982H120.482V18.7665C120.494 19.1552 120.534 19.5038 120.599 19.8061C120.667 20.1115 120.793 20.3614 120.981 20.5619C121.17 20.7624 121.432 20.9136 121.765 21.0185C122.098 21.1234 122.539 21.1727 123.088 21.1727C123.32 21.1727 123.545 21.1604 123.764 21.1357C123.983 21.111 124.208 21.0864 124.44 21.0617V19.4544C124.295 19.4914 124.147 19.513 124.002 19.5192C123.857 19.5254 123.708 19.5285 123.563 19.5285C123.332 19.5285 123.15 19.5007 123.014 19.4452C122.882 19.3896 122.78 19.3094 122.712 19.1984C122.644 19.0873 122.601 18.9547 122.586 18.7973C122.567 18.64 122.558 18.4518 122.558 18.2328V13.1951H124.437V11.6434H122.558V8.81445L122.561 8.81754ZM49.7986 21.1296C49.3297 21.2684 48.8391 21.3393 48.3301 21.3393C47.5866 21.3393 46.9295 21.219 46.3588 20.9753C45.7881 20.7316 45.3038 20.3923 44.9089 19.9542C44.514 19.5161 44.2148 18.9948 44.0142 18.384C43.8137 17.7762 43.7119 17.1068 43.7119 16.3757C43.7119 15.7062 43.8199 15.0707 44.0328 14.4692C44.2456 13.8676 44.551 13.337 44.9459 12.8804C45.3408 12.4238 45.819 12.0629 46.3773 11.7945C46.9357 11.5261 47.5712 11.3935 48.2746 11.3935C49.0181 11.3935 49.6813 11.5477 50.2737 11.8593C50.8629 12.1709 51.3534 12.5812 51.7421 13.0902C52.1308 13.6023 52.4146 14.1884 52.5905 14.8517C52.7663 15.515 52.8126 16.1998 52.7262 16.9063H45.7912C45.7912 17.2703 45.8436 17.6251 45.9454 17.9644C46.0472 18.3037 46.2046 18.603 46.4113 18.859C46.618 19.1151 46.8802 19.3187 47.1949 19.4699C47.5126 19.621 47.889 19.6981 48.327 19.6981C48.9348 19.6981 49.4253 19.5686 49.7955 19.3064C50.1657 19.0441 50.4433 18.6523 50.6254 18.1279H52.5966C52.4887 18.64 52.2974 19.0966 52.0321 19.4976C51.7637 19.8987 51.4429 20.238 51.0634 20.5095C50.6871 20.784 50.2644 20.9907 49.7955 21.1296H49.7986ZM45.7912 15.5366H50.6469C50.6223 15.2065 50.5513 14.8918 50.4372 14.5864C50.3199 14.281 50.1626 14.0188 49.9621 13.7936C49.7616 13.5684 49.5178 13.3863 49.2309 13.2475C48.944 13.1087 48.6263 13.0377 48.2715 13.0377C47.9167 13.0377 47.5743 13.1025 47.2781 13.229C46.9789 13.3555 46.7229 13.5344 46.5131 13.7596C46.3002 13.9848 46.1305 14.2501 46.001 14.5525C45.8745 14.8579 45.8035 15.1849 45.7912 15.5396V15.5366ZM92.7538 14.0743H92.7908L94.5431 21.0833H96.6779L99.6364 11.6464H97.5201L95.6043 18.6924H95.5673L93.8706 11.6464H91.7728L90.002 18.6924H89.965L88.1202 11.6464H85.9113L88.8328 21.0833H91.0231L92.7569 14.0743H92.7538ZM66.8184 8.81754H64.7391V11.6464H63.1689V13.1982H64.7391V18.7665C64.7515 19.1552 64.7916 19.5038 64.8564 19.8061C64.9242 20.1115 65.0507 20.3614 65.2389 20.5619C65.4271 20.7624 65.6893 20.9136 66.0225 21.0185C66.3557 21.1234 66.7968 21.1727 67.3459 21.1727C67.5773 21.1727 67.8025 21.1604 68.0215 21.1357C68.2406 21.111 68.4658 21.0864 68.6972 21.0617V19.4544C68.5522 19.4914 68.4041 19.513 68.2591 19.5192C68.1141 19.5254 67.966 19.5285 67.821 19.5285C67.5896 19.5285 67.4076 19.5007 67.2719 19.4452C67.1392 19.3896 67.0374 19.3094 66.9696 19.1984C66.9017 19.0873 66.8585 18.9547 66.8431 18.7973C66.8246 18.64 66.8153 18.4518 66.8153 18.2328V13.1951H68.6941V11.6434H66.8153V8.81445L66.8184 8.81754ZM85.2357 19.6981C85.3221 19.6981 85.4177 19.6858 85.5288 19.6611V21.1018C85.4548 21.1265 85.3622 21.1542 85.245 21.1851C85.1278 21.2159 85.0105 21.2437 84.8902 21.2684C84.7699 21.2931 84.6465 21.3116 84.5262 21.3239C84.4059 21.3362 84.301 21.3424 84.2146 21.3424C83.7889 21.3424 83.4372 21.256 83.1565 21.0864C82.8757 20.9167 82.6937 20.6175 82.6073 20.1917C82.1939 20.5928 81.6849 20.8858 81.0833 21.0679C80.4818 21.2499 79.8987 21.3424 79.3403 21.3424C78.9146 21.3424 78.5074 21.2838 78.1187 21.1697C77.73 21.0555 77.3845 20.8828 77.0883 20.6576C76.7891 20.4324 76.5515 20.1455 76.3757 19.7999C76.1998 19.4544 76.1104 19.0503 76.1104 18.5876C76.1104 18.0045 76.2152 17.5294 76.4312 17.1654C76.6441 16.8014 76.9248 16.5145 77.2703 16.3078C77.6158 16.1011 78.0076 15.953 78.4395 15.8605C78.8714 15.7679 79.3064 15.7001 79.7445 15.6507C80.1208 15.5767 80.4818 15.5273 80.8211 15.4964C81.1605 15.4656 81.4628 15.4132 81.725 15.3422C81.9872 15.2682 82.1939 15.1571 82.3451 15.0059C82.4963 14.8548 82.5734 14.6265 82.5734 14.3211C82.5734 14.0527 82.5086 13.8337 82.3821 13.664C82.2556 13.4943 82.0952 13.3617 81.907 13.2722C81.7188 13.1797 81.5091 13.121 81.2777 13.0902C81.0463 13.0593 80.8273 13.0439 80.6206 13.0439C80.0375 13.0439 79.5563 13.1642 79.1799 13.4079C78.8035 13.6517 78.5907 14.028 78.5413 14.5401H76.462C76.4991 13.9324 76.6441 13.4264 76.9001 13.0254C77.1562 12.6244 77.4801 12.3004 77.8781 12.0567C78.2729 11.813 78.7203 11.6433 79.22 11.5446C79.7198 11.4459 80.2288 11.3996 80.7533 11.3996C81.216 11.3996 81.6726 11.449 82.123 11.5446C82.5734 11.6433 82.9775 11.8007 83.3354 12.0197C83.6932 12.2387 83.9832 12.5226 84.2023 12.8681C84.4213 13.2136 84.5324 13.6362 84.5324 14.136V18.9917C84.5324 19.2477 84.5663 19.4298 84.6311 19.5377C84.6989 19.6488 84.8285 19.7012 85.0229 19.7012H85.2419L85.2357 19.6981ZM82.4407 16.3571C82.123 16.5638 81.7343 16.6903 81.2715 16.7304C80.8088 16.7736 80.346 16.8384 79.8833 16.9217C79.6643 16.9587 79.4514 17.0112 79.2447 17.0759C79.038 17.1438 78.856 17.2333 78.6956 17.3505C78.5382 17.4677 78.4118 17.6189 78.3223 17.8071C78.2297 17.9953 78.1866 18.2235 78.1866 18.4919C78.1866 18.7233 78.2544 18.9177 78.3871 19.075C78.5197 19.2323 78.6832 19.3588 78.8714 19.4483C79.0596 19.5408 79.2663 19.6025 79.4915 19.6395C79.7167 19.6765 79.9203 19.6951 80.1023 19.6951C80.3337 19.6951 80.5836 19.6642 80.852 19.6025C81.1204 19.5408 81.3733 19.439 81.6109 19.2909C81.8484 19.1459 82.0459 18.9608 82.2032 18.7356C82.3605 18.5104 82.4407 18.2328 82.4407 17.9058V16.3541V16.3571ZM75.2774 13.3925C75.4286 13.411 75.5797 13.4326 75.7247 13.4573V11.449C75.626 11.4367 75.5335 11.4243 75.4409 11.412C75.3484 11.3996 75.1818 11.3935 74.9381 11.3935C74.6203 11.3935 74.3118 11.4552 74.0064 11.5755C73.701 11.6958 73.4264 11.8593 73.1765 12.0598C72.9267 12.2603 72.7138 12.4825 72.538 12.7262C72.3621 12.9699 72.2418 13.2198 72.1832 13.4758H72.1462V11.6495H70.1934V21.0864H72.2726V16.5947C72.2726 16.0702 72.3405 15.6106 72.4732 15.2065C72.6058 14.8054 72.7909 14.4661 73.0223 14.1946C73.2537 13.92 73.5252 13.7133 73.8336 13.5745C74.1452 13.4357 74.4753 13.3647 74.827 13.3647C74.972 13.3647 75.1232 13.374 75.2743 13.3925H75.2774ZM107.867 20.5095C107.491 20.784 107.068 20.9907 106.599 21.1296C106.13 21.2684 105.64 21.3393 105.131 21.3393C104.387 21.3393 103.73 21.219 103.159 20.9753C102.589 20.7316 102.104 20.3923 101.71 19.9542C101.315 19.5161 101.015 18.9948 100.815 18.384C100.614 17.7762 100.513 17.1068 100.513 16.3757C100.513 15.7062 100.617 15.0707 100.833 14.4692C101.046 13.8676 101.352 13.337 101.747 12.8804C102.141 12.4238 102.62 12.0629 103.178 11.7945C103.736 11.5261 104.369 11.3935 105.075 11.3935C105.819 11.3935 106.485 11.5477 107.074 11.8593C107.664 12.1709 108.154 12.5812 108.543 13.0902C108.931 13.6023 109.215 14.1884 109.391 14.8517C109.567 15.515 109.613 16.1998 109.527 16.9063H102.592C102.592 17.2703 102.644 17.6251 102.746 17.9644C102.851 18.3037 103.005 18.603 103.212 18.859C103.419 19.1151 103.681 19.3187 103.995 19.4699C104.313 19.621 104.69 19.6981 105.128 19.6981C105.735 19.6981 106.226 19.5686 106.596 19.3064C106.966 19.0441 107.244 18.6523 107.426 18.1279H109.397C109.286 18.64 109.098 19.0966 108.833 19.4976C108.564 19.8987 108.243 20.238 107.864 20.5095H107.867ZM102.592 15.5366H107.448C107.423 15.2065 107.352 14.8918 107.238 14.5864C107.121 14.281 106.963 14.0188 106.763 13.7936C106.562 13.5684 106.318 13.3863 106.032 13.2475C105.745 13.1087 105.427 13.0377 105.072 13.0377C104.717 13.0377 104.375 13.1025 104.079 13.229C103.78 13.3555 103.523 13.5344 103.314 13.7596C103.101 13.9848 102.931 14.2501 102.802 14.5525C102.675 14.8579 102.604 15.1849 102.592 15.5396V15.5366Z" fill="#FED85B"/>
</svg>
