<svg width="100" height="39" viewBox="0 0 100 39" fill="none" xmlns="http://www.w3.org/2000/svg">
<path d="M48.6288 30.4147C49.0409 30.4148 49.4325 30.5178 49.7621 30.7238C50.0918 30.9505 50.3596 31.2389 50.5244 31.6303C50.7098 32.0218 50.7924 32.4753 50.7924 32.9904C50.7924 33.8145 50.5863 34.4327 50.1743 34.9066C49.7621 35.3393 49.2469 35.566 48.6081 35.566C47.99 35.566 47.4748 35.3393 47.0627 34.9066C46.6506 34.4739 46.4446 33.8558 46.4445 33.0934C46.4445 32.125 46.6507 31.445 47.0834 31.0329C47.5162 30.6208 48.0313 30.4147 48.6288 30.4147Z" fill="#5D7E38"/>
<path d="M60.4975 30.4147C60.9096 30.4147 61.3011 30.5178 61.6308 30.7238C61.9605 30.9505 62.2284 31.2389 62.3932 31.6303C62.5787 32.0218 62.6611 32.4753 62.6611 32.9904C62.6611 33.8146 62.455 34.4327 62.0429 34.9066C61.6308 35.3393 61.1157 35.566 60.477 35.566C59.8588 35.566 59.3437 35.3393 58.9316 34.9066C58.5195 34.4739 58.3134 33.8558 58.3134 33.0934C58.3134 32.125 58.5194 31.445 58.9521 31.0329C59.3848 30.6208 59.8999 30.4147 60.4975 30.4147Z" fill="#5D7E38"/>
<path fill-rule="evenodd" clip-rule="evenodd" d="M99.7098 38.1827H0V27.8596H99.7098V38.1827ZM29.342 29.6936C28.7857 29.6936 28.2705 29.8171 27.7966 30.0849C27.3227 30.3322 26.9724 30.7237 26.7251 31.2182C26.4778 31.7127 26.3542 32.2898 26.3542 32.9491C26.3542 33.5467 26.4574 34.1236 26.684 34.6593C26.9107 35.1951 27.2404 35.5867 27.6731 35.8751C28.1058 36.1636 28.6621 36.2872 29.342 36.2872C30.0014 36.2872 30.5578 36.1017 31.0317 35.7514C31.485 35.3805 31.8146 34.8653 31.9795 34.1647L31.1347 33.9587C31.0111 34.4738 30.7845 34.8655 30.4548 35.1539C30.1251 35.4218 29.7336 35.566 29.2597 35.566C28.8683 35.566 28.5179 35.463 28.1882 35.257C27.8585 35.0509 27.6111 34.7624 27.4463 34.3503C27.2815 33.9382 27.2197 33.4641 27.2197 32.9284C27.2197 32.5164 27.2815 32.1043 27.4258 31.7128C27.57 31.3213 27.7967 31.0121 28.1264 30.7649C28.4561 30.5383 28.8682 30.4148 29.342 30.4147C29.7747 30.4147 30.1252 30.5178 30.393 30.7238C30.6814 30.9299 30.8875 31.2801 31.0317 31.7334L31.8559 31.548C31.6911 30.9711 31.3819 30.497 30.9492 30.188C30.5165 29.8583 29.9808 29.6936 29.342 29.6936ZM48.6288 29.7141C47.7222 29.7141 47.001 30.0025 46.424 30.6001C45.8677 31.1976 45.5791 32.0218 45.5791 33.0727C45.5791 33.629 45.7029 34.1648 45.9501 34.6593C46.1974 35.1538 46.5476 35.5454 47.0215 35.8339C47.4954 36.1223 48.0313 36.2665 48.6288 36.2665C49.1852 36.2665 49.7004 36.143 50.1743 35.8751C50.6482 35.6073 51.019 35.2362 51.2868 34.7211C51.5547 34.206 51.6784 33.6291 51.6784 32.9904C51.6784 32.3516 51.5548 31.7745 51.3076 31.28C51.0603 30.7855 50.6892 30.3941 50.2153 30.1262C49.7414 29.8584 49.2263 29.7141 48.6288 29.7141ZM60.477 29.7141C59.5704 29.7141 58.8491 30.0025 58.2722 30.6001C57.7158 31.1976 57.4272 32.0218 57.4272 33.0727C57.4272 33.629 57.551 34.1648 57.7983 34.6593C58.0455 35.1538 58.3957 35.5454 58.8696 35.8339C59.3435 36.1223 59.8794 36.2665 60.477 36.2665C61.0333 36.2665 61.5485 36.143 62.0224 35.8751C62.4963 35.6073 62.8671 35.2362 63.135 34.7211C63.4028 34.206 63.5265 33.6291 63.5265 32.9904C63.5265 32.3516 63.403 31.7745 63.1557 31.28C62.9084 30.7855 62.5373 30.3941 62.0634 30.1262C61.5895 29.8584 61.0745 29.7141 60.477 29.7141ZM67.5859 29.6936C66.9471 29.6936 66.3907 29.8171 65.8962 30.0849C65.4017 30.3528 65.0307 30.7443 64.7834 31.28C64.5155 31.8157 64.392 32.3928 64.392 33.0109C64.392 33.6291 64.5155 34.2061 64.7834 34.7006C65.0513 35.2157 65.4223 35.5865 65.9374 35.8544C66.4525 36.1222 67.0089 36.246 67.6476 36.246C68.1009 36.246 68.5542 36.1635 69.0075 35.9987C69.4608 35.8338 69.873 35.5866 70.2851 35.257V32.8874H67.5859V33.6703H69.4609V34.8449C69.2754 35.0097 69.0281 35.1538 68.6779 35.298C68.3276 35.4422 67.9773 35.5041 67.6064 35.5041C67.1943 35.5041 66.7822 35.4217 66.4113 35.2362C66.0404 35.0508 65.7518 34.7624 65.5664 34.3915C65.3809 34 65.278 33.526 65.278 32.9697C65.278 32.5164 65.3605 32.0836 65.5253 31.6921C65.6283 31.4655 65.7519 31.2594 65.9167 31.0534C66.0815 30.868 66.3082 30.7031 66.5966 30.6001C66.8851 30.4764 67.215 30.4147 67.5859 30.4147C67.9155 30.4148 68.204 30.4765 68.4718 30.5795C68.7397 30.6826 68.9457 30.8475 69.0693 31.0329C69.1929 31.2183 69.3372 31.4655 69.4196 31.7951L70.1821 31.5891C70.079 31.1564 69.9142 30.8061 69.7082 30.5383C69.5021 30.2704 69.2136 30.0644 68.8427 29.9201C68.4718 29.7759 68.0597 29.6936 67.5859 29.6936ZM82.1127 29.6728C81.68 29.6728 81.2884 29.7554 80.9381 29.8996C80.5879 30.0439 80.3199 30.2498 80.1344 30.5383C79.949 30.8268 79.8666 31.1153 79.8666 31.445C79.8666 31.7334 79.949 32.0013 80.0932 32.228C80.2374 32.4546 80.4643 32.6605 80.7733 32.8254C81 32.949 81.4121 33.0727 82.0097 33.217C82.5866 33.3612 82.9781 33.4642 83.143 33.526C83.4108 33.6291 83.5963 33.7527 83.7199 33.8969C83.8435 34.0411 83.8847 34.2266 83.8847 34.412C83.8847 34.6181 83.8228 34.783 83.6992 34.9479C83.5755 35.1127 83.3901 35.2363 83.143 35.3393C82.8957 35.4423 82.6071 35.4835 82.298 35.4835C81.9271 35.4835 81.618 35.4216 81.3295 35.298C81.0411 35.1744 80.8351 35.0096 80.6908 34.8036C80.5466 34.5976 80.4642 34.3297 80.423 34.0207L79.6193 34.0824C79.6399 34.5151 79.743 34.886 79.9696 35.2157C80.1963 35.5454 80.5055 35.8133 80.8764 35.9781C81.2679 36.143 81.7418 36.2252 82.3187 36.2252C82.772 36.2252 83.1841 36.143 83.5343 35.9781C83.9052 35.8133 84.1732 35.5866 84.3793 35.2775C84.5853 34.9684 84.6676 34.6594 84.6676 34.3297C84.6882 34.0207 84.6059 33.7321 84.4411 33.4643C84.2556 33.1964 83.9877 32.9902 83.6169 32.8254C83.3696 32.7018 82.8957 32.5781 82.2157 32.4133C81.5358 32.2485 81.103 32.1044 80.9381 31.9601C80.7733 31.8159 80.6908 31.6304 80.6908 31.4038C80.6908 31.1359 80.8145 30.9093 81.0412 30.7238C81.2678 30.5384 81.6386 30.4353 82.1537 30.4353C82.6483 30.4353 83.0192 30.5383 83.2665 30.7443C83.5138 30.9504 83.6579 31.2596 83.6992 31.6511L84.5028 31.5891C84.4822 31.2182 84.3792 30.8886 84.1938 30.5795C84.0083 30.2911 83.7198 30.0645 83.3695 29.8996C83.0193 29.7554 82.5866 29.6728 82.1127 29.6728ZM20.6672 36.1842H25.4065V35.4423H21.4914V33.2582H25.0356V32.5163H21.512V30.5588H25.2622V29.8171H20.6672V36.1842ZM39.4182 36.1842H40.2217V31.177L43.5598 36.1842H44.4253V29.8171H43.6216V34.8036L40.2836 29.8171H39.4182V36.1842ZM74.0146 36.1842H78.7538V35.4423H74.8388V33.2582H78.383V32.5163H74.8595V30.5588H78.6098V29.8171H74.0146V36.1842ZM33.0305 36.1635H33.8752V33.1552H37.1721V36.1635H38.017V29.7966H37.1721V32.4133H33.8752V29.7966H33.0305V36.1635ZM52.7087 36.1635H56.6855V35.4218H53.5534V29.7966H52.7087V36.1635ZM71.6657 36.1635H72.5104V29.7966H71.6657V36.1635ZM14.7534 30.5588H16.8552V36.1429H17.7V30.5383H19.8018V29.7966H14.7534V30.5588Z" fill="#5D7E38"/>
<path d="M55.3059 4.49292C55.5737 4.49292 55.9653 4.51373 56.4392 4.86397C56.913 5.21428 57.1397 5.87361 57.1191 6.26509C57.1191 6.55354 57.0572 6.73905 56.9954 6.92449L56.9131 7.1716H62.0644C62.2911 7.1716 62.6002 7.17166 63.0534 7.4189C63.5274 7.62495 64.0012 8.40803 63.9394 8.94376C63.9394 9.23214 63.8778 9.39698 63.8571 9.47942L63.8159 9.58244C63.4862 10.5509 62.3941 10.9013 61.9201 10.8395H55.5737L50.7932 24.0473C50.5047 24.8097 49.7835 25.3661 49.0417 25.3661C49.0005 25.3043 48.9593 25.3042 48.9387 25.3042C48.6914 25.3042 48.3 25.2836 47.8466 24.9746C47.3521 24.6655 47.0635 23.9648 47.1047 23.5527C47.1047 23.3055 47.1461 23.0788 47.2285 22.8728L51.5969 10.8188H51.3701C51.1435 10.8188 50.855 10.8188 50.4223 10.5922C49.969 10.4067 49.4333 9.64433 49.4951 9.04679C49.4951 8.86134 49.5157 8.65521 49.5981 8.44916C49.8866 7.54257 50.7932 7.15099 51.5144 7.1716H52.9362L53.4306 5.81173C53.6985 5.00813 54.5435 4.45171 55.3059 4.49292Z" fill="#5D7E38"/>
<path d="M41.8505 6.78022C43.1281 6.78022 44.3231 7.0481 45.374 7.60442C46.4249 8.16076 47.2905 9.06743 47.7026 10.1183C47.9498 10.6952 48.0734 11.3339 48.0734 11.952C48.0734 12.1581 48.0528 12.3436 48.0322 12.5702C47.9292 13.3738 47.6819 14.2599 47.2697 15.3726L44.1584 23.9856C43.8699 24.7273 43.1487 25.3041 42.4069 25.3042C42.3041 25.3042 42.2628 25.3042 42.2421 25.3042C41.9949 25.3042 41.6032 25.2837 41.1499 24.954C40.6554 24.645 40.367 23.9443 40.4082 23.5322C40.4082 23.2643 40.4699 23.017 40.5317 22.8728L43.4785 14.7132C44.0554 13.1678 44.5292 11.5399 43.5608 10.8805C43.1074 10.5921 42.5305 10.4067 41.6445 10.4066C40.6966 10.4066 39.7694 10.6128 38.801 11.0455C37.8325 11.4988 37.0907 12.0346 36.5344 12.6939C36.2253 13.0648 35.9986 13.4151 35.8337 13.7447C35.6689 14.0538 35.3804 14.7751 35.0095 15.7847L32.063 24.0061C31.7333 24.8303 30.9709 25.3867 30.2085 25.3249C29.9612 25.3249 29.5697 25.3042 29.1164 24.9951C28.6219 24.686 28.3333 23.9856 28.3745 23.5734C28.3745 23.3056 28.4364 23.0583 28.4982 22.914L33.7319 8.46988C33.9792 7.70749 34.8241 7.10986 35.6071 7.15107H35.7514C35.9987 7.17168 36.3489 7.23351 36.761 7.52192C36.9052 7.62493 37.0288 7.74858 37.1318 7.89278C37.3997 7.76915 37.647 7.66628 37.9355 7.54265C39.213 7.04812 40.5318 6.78022 41.8505 6.78022Z" fill="#5D7E38"/>
<path fill-rule="evenodd" clip-rule="evenodd" d="M73.9951 6.42989C76.0968 6.42989 78.0132 6.88313 79.5998 7.89278C81.1864 8.88183 82.3402 10.3862 82.7111 12.1788C82.8347 12.6939 82.8967 13.2296 82.8967 13.7447C82.8967 14.5689 82.7524 15.4138 82.4433 16.2174C82.1548 17.1858 80.939 17.7215 80.3002 17.6185H65.011C64.7843 17.6185 64.4752 17.6184 64.0219 17.3712C63.7747 17.2681 63.5481 17.0209 63.3832 16.7325C63.2596 17.1446 63.1977 17.536 63.1977 17.8863C63.1977 18.2778 63.2596 18.6488 63.3832 18.9991C63.6717 19.782 64.1456 20.3384 65.0522 20.8535C65.9382 21.348 67.0304 21.6365 68.4316 21.6365C69.3382 21.6365 70.3273 21.4923 71.4194 21.2039C72.5114 20.9154 73.4592 20.5239 74.2834 20.0706C74.5719 19.9469 74.6544 19.7821 75.4374 19.7202C75.6641 19.7408 75.9938 19.7409 76.4677 20.0088C76.9622 20.2767 77.3124 21.0184 77.2712 21.4717C77.2712 21.7602 77.2095 21.925 77.1889 22.0281V22.1104C76.9211 22.7284 76.715 22.7904 76.5707 22.9346C76.4265 23.0582 76.3028 23.1202 76.1792 23.2026C75.9319 23.3468 75.6433 23.4909 75.3137 23.6557C73.0677 24.7478 70.7188 25.3249 68.3286 25.3249C66.4123 25.3043 64.6196 24.9127 63.0742 24.0473C61.5494 23.2025 60.3749 21.9044 59.8185 20.3179C59.5507 19.5761 59.427 18.8136 59.427 18.0306C59.427 17.124 59.5919 16.1967 59.9216 15.3106C60.5191 13.6417 61.5905 12.1169 63.0534 10.757C64.5164 9.41764 66.2061 8.3667 68.143 7.5837C70.0593 6.82131 72.0375 6.42989 73.9951 6.42989ZM73.8508 10.0976C72.4496 10.077 71.0072 10.3655 69.5236 10.963C68.04 11.5606 66.7625 12.3642 65.6704 13.3739C65.4437 13.5799 65.2582 13.7859 65.0522 13.9713H79.1052V13.7653C79.1052 13.5386 79.0846 13.3325 79.0434 13.1471C78.8579 12.3023 78.487 11.7254 77.6628 11.1278C76.7561 10.4685 75.5404 10.0976 73.8508 10.0976Z" fill="#5D7E38"/>
<path d="M25.7783 7.7487C26.0668 6.96571 26.8703 6.34748 27.6533 6.42989C27.9006 6.42989 28.2922 6.45041 28.7661 6.75949C29.2606 7.06855 29.549 7.76914 29.5078 8.20185C29.5078 8.4903 29.4461 8.67583 29.3842 8.86126L23.9031 23.9856C23.5322 24.8303 22.8316 25.3042 22.1311 25.3042H22.0075C21.7397 25.3042 21.3481 25.2836 20.8742 24.9333C20.4003 24.6036 20.153 23.9237 20.1736 23.5322C20.1736 23.2849 20.2147 23.0582 20.2971 22.8728L25.7783 7.7487Z" fill="#5D7E38"/>
<path d="M87.0383 7.13055H97.4853C97.7325 7.13055 98.0622 7.13043 98.5361 7.37765C99.0306 7.6043 99.5046 8.38742 99.4428 8.94376C99.4428 9.25278 99.381 9.41763 99.3398 9.58244C99.1337 10.0976 98.907 10.2625 98.7421 10.4274L86.1523 21.6365H93.2612C93.7351 21.6571 94.2089 21.8838 94.415 22.1929C94.8271 22.7492 94.7653 23.6559 94.6623 24.0268C94.3944 24.8716 93.6113 25.2836 92.9314 25.3042H81.516C81.2688 25.3042 80.9597 25.3043 80.4858 25.0571C80.0118 24.8716 79.476 24.0885 79.5378 23.4909C79.5378 23.2643 79.5792 22.9965 79.7028 22.7492C79.8883 22.3577 80.1149 22.1516 80.2797 22.0073L92.8696 10.7982H86.9147C86.6881 10.7982 86.3995 10.7981 85.9667 10.5715C85.5134 10.4066 84.9778 9.62359 85.019 9.02606C85.019 8.84063 85.0601 8.614 85.1425 8.38738C85.431 7.50136 86.4201 7.10994 87.0383 7.13055Z" fill="#5D7E38"/>
<path d="M15.9907 0.0628031C17.5155 0.0628087 18.9373 0.371968 20.153 1.07254C21.3687 1.75251 22.3166 2.80344 22.7905 4.10154C22.9965 4.69908 23.1201 5.33787 23.1201 5.95601C23.1201 6.47113 23.0377 6.98624 22.8523 7.46015C22.6256 8.26373 21.5542 8.86134 20.936 8.77896C20.6063 8.77896 20.0706 8.69649 19.5967 8.26383C19.1227 7.83114 18.999 7.23354 18.999 6.88324C18.999 6.67719 19.0196 6.49162 19.0608 6.34739C19.0814 6.24438 19.102 6.14131 19.102 6.03831C19.102 5.87349 19.0814 5.68807 18.999 5.50265C18.5663 4.47241 17.9687 3.97787 15.7639 3.85424C14.1567 3.85425 12.6732 4.32822 11.1484 5.33785C9.87088 6.20327 9.17021 7.10986 8.79931 8.0783C8.65508 8.4698 8.61398 8.77892 8.61398 9.04679C8.63459 9.50008 8.73746 9.80923 9.06714 10.2213C9.62134 10.8151 10.3087 11.1805 11.6404 11.2266C11.3241 10.8836 11.1031 10.3726 11.1484 9.99455C11.1484 9.74731 11.1896 9.5001 11.272 9.35587C11.4574 8.82013 11.9314 8.38742 12.3435 8.22258C12.7556 8.03714 13.1059 8.01641 13.4355 7.9958C15.1664 7.9958 16.7736 8.36677 18.1953 9.17034C19.3904 9.8297 20.3384 10.7983 20.936 11.9728C21.3481 12.8175 21.5542 13.7447 21.5542 14.6925C21.5542 15.5373 21.3892 16.3823 21.0801 17.2271C20.5855 18.5664 19.7613 19.8026 18.6487 20.9153C17.5566 22.028 16.2379 22.9552 14.7749 23.697C12.6731 24.7273 10.4889 25.2631 8.3047 25.2631C6.55328 25.3043 4.98735 24.9951 3.62742 24.2739C2.22625 23.5527 1.15469 22.3783 0.557129 20.9565C0.227447 20.1736 0.0419974 19.3494 0.0419922 18.5252C0.0419922 17.8452 0.165588 17.1652 0.41285 16.5264C0.721932 15.6404 1.60809 15.0634 2.39109 15.1458C2.70018 15.1459 3.21532 15.2077 3.6892 15.6197C4.16312 16.0318 4.30724 16.6501 4.28664 16.9798C4.28663 17.2682 4.24542 17.433 4.18361 17.6185C4.10119 17.8863 4.06006 18.1543 4.06006 18.4222C4.06006 18.7106 4.10131 19.0197 4.20433 19.3081C4.4516 19.9469 4.82254 20.4002 5.58494 20.8123C6.32673 21.2244 7.27461 21.4511 8.57273 21.4717C10.5302 21.4717 12.3846 20.8741 14.2803 19.6172C15.8875 18.5252 16.8355 17.3507 17.2888 16.0938C17.4536 15.6199 17.5361 15.2077 17.5361 14.8368C17.5361 14.5277 17.4948 14.2392 17.3918 13.9508C17.1652 13.3326 16.7942 12.8794 16.073 12.4466C15.2694 12.0139 14.404 11.7872 13.3738 11.7872H13.2251C13.5385 12.1303 13.7545 12.644 13.7241 13.0236C13.7241 13.312 13.6622 13.4974 13.6003 13.6622C13.4355 14.1774 12.9822 14.6101 12.5701 14.775C12.158 14.9604 11.8077 15.0016 11.5193 15.0016C11.5193 15.0016 11.5193 15.0016 11.4987 15.0016C10.0976 15.0222 8.75814 14.6926 7.60423 14.0538C6.57396 13.4975 5.70845 12.6527 5.25513 11.6842C4.84304 10.9218 4.61644 10.0563 4.61644 9.17034C4.61645 8.42858 4.76069 7.70743 5.02855 6.98627C5.74974 4.96696 7.27455 3.29782 9.3557 2.0203C11.4162 0.74279 13.6623 0.0628031 15.9907 0.0628031Z" fill="#5D7E38"/>
<path fill-rule="evenodd" clip-rule="evenodd" d="M29.8374 0.00102782C30.6616 -0.0195769 31.5477 0.26893 32.104 0.928261C32.4543 1.31976 32.6604 1.87614 32.6604 2.41188C32.6604 2.74153 32.5986 3.05058 32.4956 3.35963C32.2277 4.12201 31.6301 4.76079 30.9089 5.2141C30.1878 5.6674 29.3636 5.91474 28.5188 5.91476H28.498C27.6738 5.91475 26.829 5.6674 26.2314 5.00805C25.8812 4.61657 25.6545 4.06031 25.6751 3.52464C25.6751 3.19495 25.737 2.88575 25.8401 2.57668C26.1285 1.79372 26.7054 1.15491 27.4265 0.72221C28.1477 0.268895 28.9721 0.021633 29.8169 0.00102782H29.8374ZM29.8787 2.1853C29.4048 2.2059 29.0133 2.32945 28.6218 2.57668C28.2097 2.82394 28.0447 3.05072 27.9417 3.31858C27.9005 3.42148 27.9006 3.48327 27.9006 3.50391C27.9006 3.54512 27.9005 3.50396 27.9211 3.54516C27.9623 3.58637 28.0654 3.68936 28.5393 3.70996C28.9308 3.70996 29.3223 3.60696 29.7344 3.33911C30.1671 3.07125 30.3319 2.84458 30.4143 2.61793C30.4555 2.4943 30.4556 2.43248 30.4556 2.41188C30.4556 2.37068 30.4762 2.41186 30.435 2.3501C30.3732 2.28828 30.2908 2.2059 29.8787 2.1853Z" fill="#5D7E38"/>
</svg>
