<svg width="488" height="192" viewBox="0 0 488 192" fill="none" xmlns="http://www.w3.org/2000/svg">
<g filter="url(#filter0_ddi_97287_2)">
<path d="M67.5544 129.769C67.6131 130.52 67.1124 130.932 66.0524 131.005C65.2575 131.06 64.2786 130.751 63.1158 130.077C62.4927 128.922 62.0052 126.094 61.6533 121.592C61.3014 117.09 61.0558 113.379 60.9165 110.46C60.7737 107.497 60.6498 104.776 60.545 102.299C60.3891 96.8957 60.2991 94.0397 60.2749 93.7308C61.4971 92.8917 62.5277 92.4432 63.3668 92.385C64.206 92.3269 64.6548 92.673 64.7135 93.4233L67.5544 129.769ZM99.918 75.1424C100.249 79.3795 100.441 83.5374 100.493 87.6163C100.586 91.648 100.674 95.6135 100.757 99.5128C100.881 103.365 101.113 107.476 101.455 111.845C101.793 116.171 102.461 120.739 103.458 125.551C103.538 126.567 103.396 127.309 103.033 127.777C102.714 128.243 102.113 128.507 101.23 128.568C99.1541 128.712 97.9817 127.062 97.7126 123.62L97.5418 121.435C91.6361 126.548 86.5191 129.254 82.191 129.554C80.4685 129.674 78.6691 129.377 76.7928 128.663C74.9607 127.947 73.1496 126.364 71.3596 123.915C71.056 122.871 70.861 121.797 70.7748 120.694C70.6885 119.59 70.7838 118.252 71.0605 116.68C71.378 115.06 72.1116 113.368 73.2612 111.602C74.4551 109.833 75.9295 108.244 77.6844 106.836C81.5336 103.818 85.8211 102.145 90.5468 101.818C92.5784 101.677 94.5458 101.851 96.449 102.341C96.3869 101.546 96.3224 100.153 96.2555 98.1606C96.2327 96.1653 96.2014 94.0596 96.1614 91.8437C95.9779 86.0876 95.8906 82.6989 95.8996 81.6777C95.9051 80.6123 95.9466 79.7219 96.0239 79.0066C96.1419 78.244 96.3348 77.5872 96.6025 77.0361C97.1787 75.8868 98.2839 75.2556 99.918 75.1424ZM75.5694 119.829C75.842 123.316 77.2369 124.972 79.7544 124.797C80.1518 124.77 80.59 124.695 81.069 124.573C82.8797 124.448 85.0686 123.764 87.6358 122.521C92.5153 120.186 95.4502 118.252 96.4405 116.719L95.7523 107.914C95.6315 106.369 94.3125 105.684 91.7951 105.858C91.4825 105.835 91.0612 105.842 90.5312 105.879C90.0454 105.913 89.2811 106.077 88.2384 106.371C87.1957 106.665 86.0343 107.145 84.7542 107.81C83.4741 108.476 82.2264 109.272 81.0112 110.2C78.4586 112.196 76.7692 114.443 75.9432 116.941C75.6181 117.895 75.4935 118.858 75.5694 119.829ZM120.67 122.495C124.557 122.226 130.271 120.055 137.812 115.983C138.298 115.949 138.709 116.098 139.046 116.43C139.379 116.717 139.563 117.082 139.598 117.523C138.066 120.647 134.87 123.22 130.01 125.243C125.151 127.266 120.514 127.875 116.099 127.072C111.097 126.132 107.9 123.58 106.509 119.416C106.355 118.584 106.223 117.461 106.113 116.049C106.002 114.636 106.211 112.758 106.738 110.414C107.306 108.023 108.392 105.729 109.997 103.532C111.601 101.335 113.549 99.5585 115.841 98.2016C118.133 96.8447 120.626 96.0729 123.32 95.8862C125.881 95.7088 128.821 96.3926 132.139 97.9378C133.706 98.6723 134.973 99.5386 135.939 100.537C136.905 101.535 137.431 102.586 137.517 103.689C137.541 103.998 137.543 104.308 137.523 104.62C137.645 107.319 136.475 109.108 134.013 109.989C132.933 110.374 131.665 110.618 130.207 110.719L120.636 110.982C117.457 111.203 115.081 112.055 113.51 113.539C112.597 114.357 112 115.53 111.72 117.058C113.138 120.998 116.121 122.81 120.67 122.495ZM130.863 101.221C129.837 100.582 128.781 100.145 127.697 99.9095C126.613 99.674 125.718 99.5807 125.011 99.6297C124.304 99.6787 123.175 100.001 121.623 100.597C120.068 101.148 118.694 101.754 117.502 102.413C114.565 104.037 113.157 105.621 113.278 107.165C116.835 107.23 119.497 107.2 121.264 107.078C126.166 106.738 129.446 106.09 131.103 105.132C132.128 104.617 132.615 104.029 132.563 103.367C132.501 102.572 131.934 101.857 130.863 101.221ZM169.396 112.73C166.49 118.167 162.326 121.695 156.902 123.313C155.641 123.667 154.481 123.88 153.421 123.954C152.406 124.024 151.544 124.084 150.838 124.133C150.172 124.135 149.412 124.076 148.56 123.958C147.707 123.839 146.911 123.606 146.174 123.258C144.467 122.444 143.548 121.199 143.417 119.522C143.178 118.739 143.021 117.863 142.945 116.892C142.866 115.877 142.983 114.537 143.297 112.874C143.611 111.21 144.268 109.389 145.268 107.412C146.312 105.431 147.611 103.589 149.165 101.884C152.392 98.2874 155.999 95.8631 159.987 94.6107C161.158 94.2632 162.23 94.0559 163.202 93.9885C164.217 93.9182 165.128 93.9216 165.933 93.999C168.495 93.8215 170.354 95.4456 171.509 98.8711C172.256 101.038 172.829 104.105 173.228 108.071C173.667 111.99 174.016 115.028 174.273 117.184C174.571 119.294 175.01 121.216 175.59 122.95L171.681 123.221C171.411 122.042 171.196 120.992 171.035 120.071C170.874 119.15 170.719 118.296 170.568 117.507C170.203 115.669 169.812 114.076 169.396 112.73ZM168.328 102.486C168.128 99.9263 166.77 98.7336 164.252 98.908C163.94 98.8853 163.629 98.8846 163.32 98.906C160.096 99.1294 156.816 100.91 153.48 104.247C151.912 105.776 150.601 107.464 149.546 109.312C147.976 111.95 147.269 114.262 147.424 116.249C147.628 118.853 149.25 120.293 152.291 120.571C156.259 120.207 159.916 118.134 163.261 114.353C164.686 112.701 165.836 110.935 166.71 109.055C167.934 106.529 168.473 104.34 168.328 102.486ZM200.056 104.482C204.914 104.145 207.44 105.213 207.633 107.684C207.778 109.538 206.6 111.794 204.099 114.452C200.366 118.394 195.185 121.704 188.556 124.382C188.247 124.403 187.87 124.119 187.424 123.528C187.022 122.935 186.699 122.491 186.454 122.198C186.25 121.857 186.1 121.645 186.005 121.563C190.953 119.534 194.968 117.215 198.05 114.605C200.134 112.863 201.136 111.485 201.057 110.469C200.977 109.454 199.635 109.037 197.029 109.218C194.423 109.398 190.651 110.281 185.713 111.865C183.41 111.936 181.358 111.257 179.559 109.829C177.995 108.562 177.159 107.244 177.052 105.876C176.942 104.463 177.239 103.156 177.945 101.953C178.646 100.706 179.62 99.5295 180.866 98.4226C182.111 97.3157 183.585 96.2817 185.286 95.3208C189.452 92.9465 193.853 91.5987 198.491 91.2775C199.86 91.1826 201.195 91.2232 202.497 91.3993C203.557 91.3259 204.211 91.7465 204.46 92.6611C204.709 93.5757 204.917 95.0923 205.082 97.2108C202.383 96.1997 199.4 95.8073 196.132 96.0337C192.069 96.3152 188.776 97.3643 186.254 99.1809C183.64 100.96 182.388 103.132 182.5 105.698C182.597 106.934 183.55 107.489 185.361 107.363L190.156 106.499C194.238 105.328 197.538 104.656 200.056 104.482Z" fill="#BCFF4F"/>
</g>
<path d="M431.083 145.938C433.791 143.989 437.212 141.195 439.697 138.991C440.473 138.304 439.986 138.539 440.514 138.06C441.526 137.139 442.618 136.286 443.621 135.325C443.955 135.003 443.383 135.226 443.736 134.893C445.659 133.074 447.533 131.433 449.464 129.528C458.842 120.25 467.343 110.237 474.283 98.7096C476.537 94.9822 478.957 90.0291 480.823 85.9283C481.05 85.4321 481.089 85.8037 481.144 85.7145C481.998 84.3125 481.442 84.6633 481.795 83.677C483.165 79.8233 484.595 75.3618 485.537 71.5343C485.943 69.8593 485.934 71.6207 486.091 69.888C486.101 69.7685 485.823 70.1526 485.896 69.6911C486.066 68.6497 486.429 66.6992 486.523 65.8631C486.702 64.2807 486.728 64.06 486.858 62.5543C487.026 60.4879 486.99 58.0692 486.923 55.8739C486.908 55.41 487.143 56.0133 487.134 55.2714C487.135 54.5223 486.913 52.5039 486.763 51.8627C486.622 51.2112 486.505 51.5158 486.453 51.4051C486.025 50.4837 485.958 48.1506 485.883 47.8676C484.739 42.5646 482.366 38.2946 479.034 34.426C476.502 31.4719 473.125 28.8723 469.794 27.2819C465.814 25.3836 462.135 24.5637 457.92 24.0473C457.884 24.0431 457.854 24.0381 457.829 24.0324C457.554 23.9685 457.977 23.814 457.477 23.757C451.739 23.1078 446.143 22.7523 440.47 22.7871C439.895 22.7913 440.631 23.0135 440.057 23.0305C436.587 23.1099 431.083 23.6353 429.03 22.8483C426.69 22.9872 423.765 23.235 421.754 23.6131C420.396 23.8639 421.746 23.9533 420.053 24.0326C419.673 24.0522 420.143 23.8022 419.575 23.8472C417.187 24.0374 414.663 24.4488 412.293 24.7416C411.818 24.7997 411.918 24.6039 411.779 24.595C410.615 24.5277 408.848 25.2992 408.426 25.4182C405.356 26.274 403.117 26.7175 400.287 27.5042C399.64 27.6871 400.341 27.243 399.716 27.4119C396.409 28.3131 393.042 29.4783 390.016 30.8182C389.353 31.1139 390.047 31.0499 389.735 31.2008C388.299 31.8974 387.822 31.6887 386.499 32.3798C386.222 32.5257 386.455 32.6096 386.411 32.6507C385.746 33.2863 384.835 33.2601 384.619 33.3563C381.918 34.5565 380.459 35.8785 378.067 37.311C377.769 37.4923 378.312 36.8825 377.483 37.4052C372.1 40.8328 366.848 45.4582 363.8 51.16C363.341 52.0489 363.83 51.5017 363.816 51.5675C363.624 52.5853 362.976 53.0103 362.827 53.3145C361.683 55.6615 361.62 58.1018 361.307 59.9807C361.606 65.125 366.943 68.1149 371.401 68.2041C377.673 68.6552 384.017 67.8222 389.869 65.7293C389.995 65.6846 389.704 65.5557 389.956 65.4673C392.977 64.3522 392.485 64.8386 394.632 64.423C395.18 64.3136 396.493 63.2071 396.603 63.1115C397.026 62.7728 396.4 62.7191 396.549 62.6224C397.767 61.8262 398.016 62.8664 399.78 61.9435C399.833 61.9128 399.515 61.8678 399.652 61.773C400.079 61.4784 400.562 61.2982 400.966 60.9932C401.895 60.2832 401.992 59.6564 403.615 58.9618C403.821 58.8676 403.855 59.567 405.314 58.5397C405.904 58.1458 408.41 56.2794 409.049 55.6723C409.697 55.086 409.115 55.3241 409.158 55.278C410.77 53.5794 410.036 54.0617 410.653 53.0119C411.251 51.9547 411.614 52.8091 412.027 52.5497C412.438 52.2992 413.51 50.9142 413.735 50.5565C413.969 50.2004 413.525 50.5021 413.748 50.2017C415.193 48.2053 414.794 49.6878 415.442 49.1592C416.963 47.8775 417.364 46.2685 418.295 44.7798C418.544 44.3759 418.453 44.7804 418.697 44.4351C419.665 43.0343 420.001 42.0793 421.042 40.4372C421.216 40.1675 422.235 38.9329 422.344 37.8585C422.358 37.7093 422.061 38.0292 422.289 37.3406C422.634 36.3216 423.179 34.4587 423.474 33.3443C423.694 32.5227 423.754 33.5393 423.889 32.4603C423.941 31.9765 423.626 32.8287 423.732 31.9273C423.857 31.0361 424.069 28.7715 424.048 27.899C424.048 27.0352 424.252 27.504 424.266 27.4343C424.356 27.0141 424.319 25.3063 424.285 25.1602C423.425 17.4974 417.985 11.8725 411.929 8.27375C411.438 7.97899 411.874 7.98541 411.801 7.93853C410.109 6.89343 411.178 8.12708 409.914 7.67235C410.275 7.37533 409.578 7.08286 408.352 6.46883C407.756 6.17426 408.153 6.17011 408.106 6.12943C407.295 5.48904 406.504 5.53149 406.34 5.53769C405.672 5.5371 405.128 5.02191 404.657 5.02917C404.189 5.03746 405.059 5.60108 403.827 5.16647C403.526 4.89966 404.591 4.83499 403.655 4.44698C402.067 3.8023 400.143 3.23564 397.832 2.73507C394.97 2.11204 391.938 1.74881 390.23 1.54186C387.238 1.18613 386.318 1.09354 384.534 0.999052C381.424 0.876011 382.582 0.659546 380.621 0.418274C378.628 0.195973 379.586 0.978846 379.292 1.1255C379.016 1.2746 378.725 1.1012 378.382 1.17862C378.042 1.25635 378.771 1.38483 377.974 1.39569C377.183 1.40255 374.972 1.09525 374.677 0.932038C374.071 0.580566 375.065 0.20381 372.947 0.344964C372.825 0.353756 373.222 0.544693 372.755 0.568588C369.008 0.753767 365.122 0.943212 361.449 1.35083C360.941 1.40761 361.413 1.589 361.117 1.62467C358.035 2.01033 359.081 1.56325 357.372 1.31101C357.797 1.81504 356.912 2.21817 354.569 2.47204C353.159 2.62871 353.368 2.36979 352.438 2.31042C352.163 2.29173 351.197 2.57156 351.004 2.48438C350.367 2.20051 351.256 1.67329 348.862 2.14812C348.757 2.1698 349.121 2.32144 348.756 2.38205C346.384 2.78338 346.073 2.44443 343.517 2.7868C341.493 3.05805 338.021 3.8781 335.751 4.33967C335.903 4.9267 333.751 5.18781 332.814 4.94707C331.36 5.24766 329.768 5.54697 328.363 5.9025C327.885 6.02341 328.238 6.1284 328.181 6.15977C327.313 6.64769 326.596 6.38747 326.279 6.44021C322.83 7.03559 320.153 7.9813 316.838 8.49478C316.722 8.51281 316.428 8.1512 315.641 8.66703C315.591 8.70172 316.697 8.61909 315.192 9.01593C313.69 9.41139 310.88 10.3834 308.739 10.7731C308.222 10.8662 306.85 10.8924 305.895 11.4422C305.768 11.516 305.95 11.5896 305.771 11.7105C305.191 12.0985 304.725 11.7894 304.074 12.3546C303.416 12.9223 301.957 13.629 299.789 14.0267C299.72 14.0401 299.126 13.8677 298.468 14.0758C297.414 14.4084 295.95 14.9407 294.858 15.2871C294.335 15.4528 294.606 15.1464 294.514 15.1718C290.955 16.1908 288.523 17.1991 284.808 18.5813C284.124 18.8359 282.069 19.2606 280.824 19.954C279.46 20.7159 281.298 21.1301 277.894 22.1302C276.529 22.5358 274.369 21.9543 272.218 23.5198C267.517 25.1785 263.39 27.2574 258.721 29.032C258.511 29.112 257.713 29.0637 257.231 29.2821C256.516 29.6067 256.192 29.9375 255.685 30.1762C253.565 31.1807 251.553 31.9433 249.512 32.9272C248.738 33.3007 249.085 33.3313 248.164 33.779C247.244 34.2279 246.534 34.3101 245.33 35.0199C244.423 35.5564 243.691 36.4431 242.475 37.1115C242.219 36.7177 241.371 37.1486 239.803 37.8082C239.5 37.9355 239.739 37.6311 239.592 37.6839C238.992 37.8957 238.535 38.2819 237.962 38.4751C237.823 38.5224 237.744 38.3838 237.626 38.4146C236.618 38.6702 235.314 39.7624 235.092 39.9512C234.24 40.6714 233.69 40.7309 232.993 41.2127C232.298 41.6941 233.458 41.2 232.622 41.7163C230.887 42.7881 228.62 44.0167 226.821 45.0524C226.107 45.4621 226.489 44.9988 226.385 45.0531C224.878 45.8514 223.516 46.9124 222.494 47.0249C222.037 48.573 221.548 47.4558 219.58 48.9052C219.425 49.0201 219.488 49.5891 220.154 49.2733C220.82 48.9577 221.692 48.2438 222.633 47.824C222.858 47.7222 224.285 47.4466 224.462 47.3778C225.846 46.8368 225.642 46.063 225.688 45.9866C226.225 45.1449 227.958 44.7631 228.365 44.5769C230.212 43.7276 231.668 42.8034 233.224 42.0975C234.24 41.6364 234.58 42.0312 235.337 41.6104C237.862 40.2155 238.446 39.1164 241.161 38.4268C241.742 38.2811 241.47 39.0353 243.147 37.7094C243.252 37.6259 244.47 36.5761 245.392 36.4081C245.507 36.3871 245.575 36.534 245.715 36.4809C246.653 36.1217 247.195 35.7167 248.201 35.3041C249.208 34.8917 250.428 34.4174 251.531 33.844C252.196 33.4986 252.945 32.8224 253.238 32.6069C254.069 31.9925 255.201 31.8635 255.668 31.3722C256.14 30.8775 254.848 31.0243 256.298 30.1938C256.525 30.5528 256.829 30.8895 257.091 31.2357C260.406 29.7473 263.636 28.2218 267.017 26.8573C267.436 26.6888 267.094 27.0727 267.545 26.8978C269.45 26.1602 271.045 25.3501 273.044 24.6396C274.591 24.0909 276.355 23.6731 277.978 23.1306C278.789 22.312 281.238 21.5835 282.961 20.9228C283.565 20.6909 283.482 20.5846 283.901 20.3913C285.487 19.6667 284.862 20.3388 285.333 20.2438C287.357 19.8404 287.209 18.8723 289.499 18.1228C289.621 18.0819 291.259 18.0755 291.476 18.0383C292.84 17.8074 291.635 17.7974 292.437 17.494C293.9 16.9424 294.896 16.4924 296.683 16.0869C297.201 15.9703 298.525 15.8919 299.444 15.3527C299.565 15.2818 299.444 15.1418 299.546 15.1002C301.401 14.3628 301.604 14.861 302.74 14.7114C303.868 14.5642 305.462 13.7215 305.775 13.5225C306.599 13.0019 305.054 13.607 304.997 13.5961C304.336 13.4542 305.585 13.1495 306.519 12.8572C306.513 12.3154 307.839 11.9755 307.487 12.5572C307.447 12.6211 306.701 12.7804 306.519 12.8572C307.487 13.1152 308.939 12.7758 310.414 11.8797C311.109 11.4605 310.33 11.3944 312.643 10.8795C313.691 10.6486 313.382 11.1013 314.319 10.959C316.444 10.6383 319.117 9.63025 321.282 9.17541C322.069 9.00992 321.352 9.38067 321.891 9.27464C323.316 8.99613 324.566 8.56047 326.014 8.319C326.145 8.29737 325.872 8.5683 326.319 8.47295C329.678 7.76286 332.642 7.02509 336.187 6.36675C337.927 6.04089 340.969 5.63243 342.786 5.32467C345.868 4.79124 349.673 3.96589 352.315 3.73026C354.054 3.57362 353.706 3.82401 354.466 3.8806C355.941 3.9888 358.395 3.26814 358.742 3.1645C358.742 3.16091 357.263 3.2485 358.042 3.07033C358.477 2.80894 358.726 3.16501 358.742 3.1645C358.97 3.08982 361.97 2.80082 362.556 2.80614C362.878 2.80553 362.712 3.01266 362.88 3.00882C366.893 2.91233 370.91 2.8157 374.925 2.74267C374.998 2.73908 374.89 2.52012 375.06 2.51447C377.455 2.43488 378.862 2.74579 380.831 2.99637C382.772 3.25045 384.221 3.3098 385.432 3.0401C386.906 3.2143 388.921 3.27719 390.169 3.35043C391.382 3.41746 391.476 3.86863 391.58 3.89156C393.765 4.42194 395.46 4.68839 397.297 5.04113C398.133 5.20566 399.007 5.39292 399.969 5.64683C401.451 6.01229 404.57 7.11532 406.042 7.80428C407.325 8.38095 408.102 8.63615 409.145 9.23943C409.285 9.32119 409.053 9.4144 409.094 9.4435C410.209 10.2885 409.846 9.57776 410.14 9.64154C411.217 9.90605 411.838 10.0584 413.236 11.1954C413.574 11.4658 414.12 12.7063 414.617 13.1828C415.284 13.8203 415.199 13.4217 415.882 14.1382C415.938 14.2003 415.83 14.2929 416.255 14.7103C418.24 16.6636 419.985 19.1508 420.878 21.8763C420.998 22.2429 420.624 21.8463 420.787 22.3765C421.55 24.8709 421.748 27.7602 421.528 30.3633C421.475 31.002 421.687 30.6259 421.717 30.7709C421.897 31.6803 421.212 32.8205 421.155 33.0033C419.782 37.6217 418.31 41.2364 415.143 45.2455C414.976 45.469 413.313 46.8357 412.964 47.8076C412.944 47.8715 412.62 48.8473 411.839 49.2694C411.79 49.2946 412.048 48.7269 411.351 49.4849C410.64 50.256 409.386 51.2797 408.456 52.3927C408.167 52.741 407.624 53.7439 406.36 54.3296C406.271 54.3815 404.21 55.0375 403.889 55.8564C403.836 55.9883 404.249 56.3661 402.754 57.036C402.47 57.159 402.87 56.7596 402.156 57.1343C401.065 57.7038 399.719 58.6711 398.277 59.1712C398.024 59.2608 396.869 59.4611 396.18 60.0901C396.072 60.1889 396.39 60.2332 395.969 60.4546C393.961 61.5088 391.711 62.2748 389.557 63.0895C388.795 63.3741 389.278 63.5242 388.481 63.8416C387.684 64.1618 386.022 64.6656 385.121 64.7231C384.221 64.7821 385.078 64.1436 383.771 64.3691C379.736 65.036 375.686 65.4034 371.614 65.1973C370.027 65.1141 368.627 64.8315 367.389 64.2197C366.789 63.8923 367.35 64.0636 366.541 63.5109C365.098 62.5137 364.129 60.3643 364.574 57.7061C364.962 55.0681 366.373 52.5053 367.313 50.8272C368.963 48.0678 366.4 51.2148 367.777 49.1685C368.427 48.2265 369.74 47.551 369.915 47.3882C371.901 45.4879 373.259 43.992 375.261 42.5107C375.684 42.2024 375.407 42.6852 375.768 42.4221C377.044 41.4963 378.223 40.5652 379.509 39.7636C380.088 39.4058 380.048 39.6241 380.549 39.3005C381.721 38.5482 382.892 37.8056 384.009 37.0406C384.115 36.9686 383.26 37.191 384.195 36.6883C385.732 35.8668 387.619 34.7973 389.541 34.1465C390.107 33.9575 390.315 34.2689 391.368 33.5649C391.595 33.4182 391.106 33.1212 392.634 32.946C392.876 32.9138 395.471 32.5171 396.483 31.8376C396.759 31.6521 397.432 31.0461 398.147 30.8851C398.244 30.8648 397.925 31.1728 398.507 31.0135C400.591 30.4425 402.6 29.8721 404.795 29.4093C405.346 29.2956 404.579 29.6908 405.4 29.5162C407.648 29.0365 410.619 28.394 412.839 27.9641C413.678 27.8012 413.068 27.7276 413.126 27.699C414.067 27.2369 414.728 27.5543 415.065 27.5283C417.148 27.3674 418.613 26.9912 420.551 26.8347C421.083 26.7925 420.727 27.0266 420.834 27.0329C421.949 27.0907 421.095 26.8237 421.79 26.7162C423.658 26.424 425.786 26.2772 427.778 26.1928C428.509 26.1627 427.701 26.4333 428.355 26.4045C432.057 26.2493 436.086 26.1699 439.775 26.1144C440.481 26.1039 440.041 25.9207 440.189 25.8837C441.215 25.6236 442.707 26.0533 443.02 26.1021C444.528 26.3247 445.13 26.199 446.492 26.3009C449.99 26.5675 453.612 26.8716 457.471 27.2799C460.93 27.6399 464.152 28.4424 466.845 29.5436C473.934 32.5107 478.503 37.0968 481.372 43.9053C481.549 44.3437 481.154 43.9908 481.302 44.3689C483.185 49.2403 483.956 54.4836 483.715 59.8286C483.695 60.2627 483.499 59.629 483.455 60.3247C483.364 61.7616 483.21 63.5907 483.083 65.0437C483.019 65.7607 483.338 64.829 483.268 65.5531C483.093 67.2871 482.792 68.9829 482.358 70.7186C482.173 71.4478 482.21 70.2981 481.986 71.2377C480.44 77.581 478.032 83.6073 475.255 89.7056C475.067 90.1156 475.295 90.6796 474.759 91.5008C474.612 91.5059 474.482 91.4319 474.347 91.3962C469.734 99.868 464.206 107.816 457.856 115.175C457.59 115.483 457.869 114.794 457.352 115.387C454.317 118.863 451.193 122.047 447.988 125.503C447.671 125.843 448.144 125.984 447.103 126.893C446.922 127.053 445.36 128.449 444.892 128.752C444.828 128.792 444.975 128.384 444.472 128.842C441.643 131.416 438.513 134.192 435.629 136.711C435.156 137.124 435.808 136.865 435.472 137.161C433.044 139.291 430.274 141.242 427.929 143.232C426.435 144.497 427.106 144.416 426.599 145.215C426.574 145.256 426.545 145.299 426.513 145.344C426.426 145.476 425.399 146.199 425.461 146.41C425.622 146.941 426.457 147.068 426.568 147.675C426.586 147.809 425.14 148.653 426.118 148.33C426.181 148.309 427.254 147.692 427.574 147.585C427.793 147.513 427.591 147.919 428.012 147.728C428.114 147.681 428.209 147.619 428.305 147.546C428.592 147.327 428.876 147.015 429.367 146.749C430.014 146.398 429.906 146.785 431.083 145.938ZM395.583 3.80942C396.713 3.83557 396.71 4.60055 395.582 4.18137C395.528 4.16044 395.525 3.80779 395.583 3.80942ZM263.406 27.7257C264.635 26.8506 265.753 26.9147 264.892 27.5476C264.033 28.1808 263.032 27.9919 263.406 27.7257ZM249.369 33.7198C250.817 32.752 251.51 33.5992 249.754 34.1865C249.652 34.2211 249.285 33.7763 249.369 33.7198ZM430.633 142.392C430.627 142.41 429.911 142.968 429.887 142.973C429.359 143.077 430.791 141.962 430.633 142.392ZM235.695 40.2497C236.102 39.8716 237.551 39.3025 237.041 39.7695C236.631 40.1444 235.188 40.7191 235.695 40.2497ZM418.018 44.5371C418.019 44.5582 417.66 45.1012 417.615 45.0541C417.476 44.9027 418.026 44.1905 418.018 44.5371ZM213.447 53.2237C216.617 51.1333 218.148 49.1623 214.664 51.4713C214.037 51.8906 216.187 50.8362 215.418 51.417C214.014 52.478 212.739 52.6464 211.416 53.8692C211.176 54.0897 213.266 53.343 213.453 53.221C213.451 53.2219 213.449 53.2228 213.447 53.2237ZM396.395 3.06098C396.42 3.0549 397.295 3.23694 397.312 3.25224C397.73 3.58728 395.976 3.22101 396.395 3.06098ZM387.462 66.2013C387.418 66.2451 385.37 66.7518 385.295 66.7375C384.148 66.6094 388.266 65.5974 387.462 66.2013ZM335.718 4.36217C334.687 4.30915 333.534 4.50052 332.818 4.94591C333.778 4.74261 334.735 4.55848 335.718 4.36217Z" fill="#B231C6"/>
<path d="M430.105 128.746C430.045 128.886 430.11 129.099 430.194 129.273C430.22 129.329 430.354 129.311 430.378 129.351C430.424 129.43 430.353 129.501 430.407 129.579C430.425 129.607 430.637 129.596 430.652 129.624C430.729 129.78 430.657 129.93 430.679 130.089C430.785 130.901 430.67 131.739 430.523 132.596C430.473 132.884 430.555 133.268 430.381 133.533C430.361 133.562 430.192 133.486 430.176 133.487C429.923 133.512 430.287 133.596 430.313 133.675C430.414 133.991 430.329 134.289 430.174 134.509C430.108 134.603 429.801 134.374 429.956 134.549C429.967 134.561 430.16 134.601 430.17 134.637C430.19 134.719 430.111 134.831 430.107 134.888C430.1 134.996 430.092 135.011 430.059 135.103C430.017 135.23 430.05 135.415 429.955 135.534C429.934 135.56 429.763 135.448 429.713 135.482C429.663 135.516 429.632 135.641 429.659 135.699C429.687 135.757 429.84 135.798 429.871 135.819C430.13 135.992 429.681 135.975 429.665 135.988C429.365 136.25 429.471 136.617 429.336 136.925C429.235 137.156 429.052 137.369 428.962 137.592C428.855 137.857 428.85 138.123 428.712 138.367C428.698 138.393 428.5 138.26 428.483 138.291C428.294 138.62 428.149 138.968 428.117 139.378C428.114 139.419 428.321 139.47 428.329 139.517C428.374 139.802 428.558 140.327 427.698 140.022C427.655 140.177 427.596 140.361 427.686 140.573C427.745 140.71 427.985 140.742 427.846 140.794C427.815 140.805 427.658 140.68 427.625 140.705C427.484 140.809 427.454 140.993 427.288 141.078C427.253 141.095 427.104 141 427.072 140.992C426.811 140.929 427.117 141.251 427.13 141.291C427.223 141.59 427.066 141.677 426.97 141.848C426.948 141.888 426.772 141.719 426.743 141.753C426.597 141.93 426.493 142.139 426.465 142.382C426.459 142.437 426.655 142.506 426.661 142.538C426.684 142.677 426.348 142.493 426.365 142.621C426.368 142.648 426.52 142.731 426.534 142.744C426.754 142.956 426.369 142.772 426.352 142.78C426.14 142.875 426.443 143.219 426.285 143.346C426.265 143.36 426.111 143.197 426.068 143.245C425.784 143.563 425.58 143.964 425.478 144.405C425.462 144.474 425.623 144.532 425.637 144.548C425.854 144.789 425.484 144.575 425.458 144.582C425.266 144.65 425.457 144.99 424.985 144.774C424.695 145.449 424.04 145.802 423.909 146.618C423.907 146.628 424.073 146.757 424.068 146.777C424.006 147.018 423.794 146.767 423.409 146.595C423.313 146.551 423.587 146.96 423.606 146.992C423.675 147.107 423.924 147.297 423.934 147.323C424.007 147.532 423.281 146.8 423.19 146.892C423.189 146.896 423.336 147.017 423.341 147.038C423.359 147.104 423.282 147.075 423.305 147.145C423.358 147.305 423.688 147.683 423.4 147.556C423.363 147.539 422.972 147.105 422.911 147.202C422.902 147.216 422.876 147.242 422.846 147.273C422.755 147.362 422.655 147.481 422.636 147.545C422.595 147.661 422.796 147.709 422.798 147.72C422.827 148.124 422.991 148.096 423.317 148.26C423.501 148.283 423.368 148.231 423.192 148.303C423.017 148.361 422.788 148.457 422.779 148.548C422.765 148.641 422.913 148.771 423.041 148.782C423.139 148.784 423.221 148.737 423.253 148.71C423.317 148.655 423.303 148.525 423.346 148.496C423.574 148.277 423.348 148.941 423.406 149.092C423.593 149.446 423.724 148.794 423.855 148.729C423.892 148.712 423.864 148.86 423.899 148.873C424.019 148.923 424.077 148.717 424.236 148.892C424.263 148.92 424.398 149.302 424.446 149.009C424.452 148.967 424.409 148.808 424.456 148.768C424.526 148.707 424.666 148.656 424.744 148.702C424.806 148.735 424.77 149.008 424.833 148.917C424.862 148.877 424.783 148.729 424.838 148.665C424.89 148.602 425.058 148.589 425.114 148.587C425.172 148.585 425.167 148.789 425.173 148.802C425.211 148.876 425.336 148.958 425.346 148.956C425.868 148.911 426.268 148.505 426.782 148.541C426.82 148.543 426.828 148.758 426.834 148.761C426.976 148.829 426.789 148.284 426.85 148.082C426.903 148.513 426.944 148.427 427.044 148.46C427.092 148.476 427.093 148.645 427.1 148.662C427.205 148.903 427.201 148.571 427.203 148.502C427.21 148.251 427.303 148.533 427.308 148.364C427.313 148.197 427.209 147.967 427.296 147.957C427.344 148.106 427.341 148.517 427.417 148.571C427.701 148.779 428.134 148.391 428.328 148.329C428.525 148.265 428.599 148.283 428.708 148.21C428.904 148.079 428.871 148.388 429.023 148.505C429.175 148.621 429.004 147.899 429 147.739C428.996 147.579 429.04 147.738 429.051 147.648C429.062 147.558 428.995 147.458 429.046 147.418C429.097 147.377 429.29 147.635 429.333 147.797C429.424 148.14 429.409 148.515 429.534 148.366C429.541 148.357 429.487 148.169 429.516 148.145C429.744 147.961 430.015 147.914 430.246 147.75C430.278 147.727 430.219 147.516 430.237 147.5C430.43 147.335 430.403 147.707 430.571 148.094C430.475 147.562 430.496 147.226 430.659 147.202C430.757 147.188 430.77 147.423 430.854 147.58C430.878 147.628 430.926 147.459 430.952 147.567C431.038 147.921 431.024 148.331 431.168 148.151C431.174 148.142 431.127 147.949 431.15 147.934C431.302 147.836 431.367 148.209 431.548 148.234C431.69 148.254 431.904 147.997 432.056 147.942C431.986 147.34 432.151 147.462 432.255 147.871C432.355 147.843 432.468 147.855 432.559 147.788C432.59 147.765 432.551 147.592 432.553 147.573C432.588 147.27 432.673 147.671 432.696 147.685C432.948 147.816 433.115 147.49 433.368 147.771C433.377 147.781 433.425 148.2 433.459 147.888C433.462 147.867 433.371 147.682 433.476 147.658C433.58 147.634 433.764 147.393 433.928 147.577C433.968 147.621 434.083 147.955 434.136 147.683C434.143 147.647 434.124 147.527 434.133 147.459C434.164 147.242 434.218 147.665 434.247 147.3C434.275 146.936 434.371 146.658 434.538 146.898C434.544 146.905 434.6 147.24 434.647 147.231C434.722 147.218 434.825 147.142 434.904 147.14C434.942 147.139 434.929 147.35 434.936 147.353C435.195 147.458 435.365 147.263 435.635 147.172C435.685 147.155 435.837 147.436 435.927 147.208C436.027 146.958 435.891 145.932 436.147 146.172C436.253 146.268 436.394 147.571 436.564 146.893C436.911 147.058 437.231 146.715 437.576 146.962C437.592 146.973 437.631 147.339 437.667 147.335C437.721 147.328 437.756 147.159 437.795 147.149C437.958 147.104 438.097 147.255 438.255 147.24C438.315 147.235 438.303 147.058 438.375 147.052C438.447 147.047 438.48 147.281 438.582 147.175C438.659 147.095 438.764 146.627 438.866 146.579C438.836 147.046 438.901 147.04 439.009 147.173C439.03 147.199 438.992 147.359 439.001 147.38C439.037 147.467 439.088 147.336 439.121 147.43C439.129 147.453 439.115 147.612 439.121 147.64C439.167 147.88 439.312 147.533 439.338 147.473C439.436 147.244 439.45 147.454 439.517 147.367C439.584 147.28 439.511 147.155 439.584 147.106C439.735 147.004 439.916 147.052 440.059 147.064C440.116 147.07 440.049 147.276 440.056 147.281C440.165 147.35 440.316 147.144 440.316 147.573C440.562 146.501 440.367 147.688 440.566 147.498C440.582 147.482 440.685 146.974 440.645 146.89C440.605 146.806 440.502 146.954 440.45 146.826C440.438 146.796 440.412 146.3 440.402 146.269C440.327 146.026 440.204 146.792 440.193 146.833C440.069 147.28 440.022 146.745 439.994 146.705C439.869 146.522 439.734 146.616 439.627 146.486C439.557 146.401 439.601 145.895 439.536 145.904C439.316 145.934 439.185 146.634 439.037 146.005C439.005 145.871 439.09 145.321 438.904 145.745C438.892 145.771 438.752 146.162 438.703 145.905C438.697 145.873 438.708 145.712 438.698 145.697C438.631 145.605 438.574 145.731 438.498 145.664C438.421 145.598 438.329 145.501 438.235 145.552C438.178 145.582 438.096 145.88 438.067 145.953C437.986 146.162 437.921 145.811 437.867 146.067C437.813 146.324 437.886 146.719 437.765 146.882C437.774 146.462 437.778 146.031 437.784 145.608C437.518 145.614 437.255 145.746 436.993 145.726C436.961 145.723 436.995 145.497 436.96 145.488C436.811 145.452 436.682 145.613 436.528 145.55C436.409 145.501 436.275 145.263 436.148 145.205C436.081 145.688 435.895 145.528 435.762 145.576C435.716 145.593 435.723 145.721 435.691 145.764C435.572 145.923 435.616 145.497 435.58 145.431C435.421 145.151 435.444 146.112 435.273 146.096C435.264 146.095 435.131 145.588 435.113 145.557C435.006 145.353 435.105 145.736 435.046 145.776C434.938 145.851 434.867 145.977 434.729 145.834C434.688 145.792 434.578 145.478 434.519 145.729C434.511 145.762 434.526 145.931 434.519 145.941C434.388 146.115 434.351 145.584 434.258 145.409C434.165 145.234 434.064 145.61 434.046 145.717C433.999 145.995 434.105 145.831 434.11 145.857C434.174 146.174 434.08 146.125 434.013 146.157C434.04 146.678 433.942 146.654 433.943 146.188C433.944 146.137 434.001 146.181 434.013 146.157C433.917 145.65 433.802 145.592 433.722 146.079C433.684 146.307 433.756 146.563 433.583 146.481C433.505 146.444 433.505 146.083 433.43 145.991C433.258 145.781 433.09 146.132 432.928 146.094C432.869 146.08 432.906 145.879 432.865 145.863C432.756 145.819 432.679 145.975 432.568 145.91C432.558 145.904 432.561 145.697 432.529 145.697C432.282 145.697 432.08 145.851 431.826 145.883C431.702 145.898 431.472 145.81 431.346 145.847C431.127 145.912 430.893 146.242 430.699 146.193C430.571 146.162 430.571 145.955 430.5 145.822C430.363 145.565 430.246 146.072 430.232 146.15C430.231 146.153 430.343 146.187 430.301 146.3C430.297 146.522 430.233 146.151 430.232 146.15C430.222 146.201 430.02 146.275 429.974 146.241C429.948 146.223 429.935 146.028 429.922 146.022C429.617 145.887 429.325 145.878 429.059 146.008C429.054 146.013 429.093 146.228 429.082 146.236C428.929 146.356 428.786 146.107 428.628 145.97C428.469 145.833 428.373 145.901 428.348 146.284C428.237 146.252 428.115 146.438 428.046 146.55C427.978 146.662 427.903 146.244 427.894 146.237C427.63 146.005 427.527 146.267 427.296 146.34C427.186 146.376 426.959 146.349 426.825 146.322C426.723 146.3 426.68 146.408 426.583 146.358C426.57 146.351 426.553 146.163 426.548 146.156C426.417 145.947 426.534 146.397 426.526 146.482C426.499 146.79 426.481 146.955 426.329 146.835C426.295 146.807 426.109 146.162 426.051 146.131C425.975 146.093 426.037 146.325 425.957 146.278C425.951 146.274 425.93 146.129 425.888 146.142C425.696 146.199 425.471 146.319 425.272 146.332C425.244 146.334 425.249 146.098 425.205 146.098C424.996 146.099 424.817 146.132 424.637 146.264C424.596 146.297 424.643 146.456 424.639 146.505C424.613 146.804 424.483 146.389 424.47 146.382C424.305 146.298 424.165 146.357 424.053 146.413C423.928 146.47 423.81 146.525 423.751 146.431C423.729 146.42 423.772 145.961 423.805 146.363C423.816 146.395 423.748 146.775 424.023 146.583C424.051 146.577 423.947 146.305 424.238 146.455C424.31 146.504 424.962 146.766 425.26 147.58C425.402 147.967 425.395 148.389 425.316 148.663C425.223 148.977 425.152 149.006 425.054 149.089C424.993 149.13 424.845 149.148 424.753 149.156C424.659 149.169 424.639 149.157 424.744 149.28C424.755 149.29 424.968 149.528 425.019 149.581C425.071 149.584 425.076 149.541 424.973 149.404C424.924 149.337 424.552 148.963 424.831 149.07C424.885 149.091 424.935 149.207 425.032 149.214C425.183 149.226 425.178 149.032 425.432 149.109C425.477 149.123 425.799 149.307 425.655 149.065C425.632 149.027 425.491 148.92 425.503 148.879C425.56 148.684 425.776 148.627 425.812 148.407C425.825 148.33 425.592 148.162 425.58 148.063C425.567 147.963 425.6 147.817 425.742 147.852C425.886 147.887 426.175 148.244 426.272 148.189C426.699 147.942 426.782 147.423 427.026 147.051C427.062 146.995 427.156 147.139 427.219 147.063C427.454 146.784 427.948 146.374 427.848 145.92C427.766 145.559 427.416 145.688 427.432 145.471C427.44 145.368 427.927 145.591 427.953 145.583C428.215 145.503 428.108 145.246 428.274 145.129C428.309 145.104 428.464 145.256 428.491 145.234C428.587 145.159 428.576 145.004 428.651 144.921C428.686 144.884 428.817 144.982 428.832 144.936C428.869 144.828 428.864 144.711 428.793 144.538C428.787 144.523 428.581 144.467 428.618 144.396C428.679 144.281 428.638 144.065 428.849 144.022C428.912 144.009 429.229 144.206 429.062 143.988C429.027 143.942 428.633 143.727 429.02 143.838C429.084 143.857 429.627 143.972 429.388 143.718C429.325 143.651 429.044 143.407 429.121 143.392C429.132 143.391 429.289 143.52 429.328 143.492C429.465 143.393 429.53 143.242 429.665 143.137C429.702 143.109 429.848 143.269 429.897 143.224C430.031 143.1 430.096 142.883 430.125 142.701C430.135 142.635 429.964 142.587 429.95 142.574C429.722 142.359 430.1 142.525 430.133 142.515C430.333 142.454 430.222 142.258 430.334 142.16C430.365 142.133 430.523 142.252 430.542 142.254C430.73 142.266 430.394 142.148 430.384 142.085C430.357 141.908 430.446 141.778 430.536 141.664C430.569 141.622 430.741 141.782 430.768 141.743C430.936 141.515 431.053 141.246 431.067 140.946C431.069 140.89 430.899 140.838 430.868 140.811C430.653 140.618 431.041 140.696 431.085 140.69C431.284 140.665 431.166 140.555 431.236 140.479C431.584 140.108 431.754 139.518 431.889 139.075C432.066 138.495 432.1 138.004 432.359 137.497C432.376 137.464 432.576 137.588 432.593 137.561C432.802 137.204 432.865 136.804 433.075 136.444C433.092 136.414 433.28 136.538 433.314 136.493C433.385 136.402 433.424 136.266 433.397 136.137C433.384 136.074 433.181 136.077 433.172 136.015C433.15 135.869 433.183 135.735 433.26 135.623C433.294 135.576 433.477 135.732 433.504 135.664C433.692 135.206 433.887 134.749 433.759 134.174C433.751 134.135 433.322 133.972 433.427 133.928C433.55 133.96 433.693 134.004 433.824 134.042C434.108 133.36 434.143 132.618 434.277 131.875C434.282 131.844 434.508 131.948 434.52 131.888C434.593 131.529 434.723 131.197 434.543 130.78C434.525 130.74 434.1 130.695 434.179 130.599C434.194 130.582 434.272 130.431 434.37 130.397C434.384 130.393 434.578 130.45 434.591 130.396C434.661 130.083 434.648 129.739 434.543 129.405C434.525 129.352 434.311 129.397 434.296 129.36C434.196 129.094 434.36 128.805 434.157 128.541C434.019 128.369 433.655 128.454 433.289 128.392C433.238 128.384 433.223 128.288 433.013 128.302C432.485 128.337 431.912 128.423 431.349 128.454C431.228 128.461 431.351 128.365 431.063 128.442C431.044 128.447 430.952 128.515 430.854 128.536C430.786 128.551 430.572 128.549 430.485 128.575C430.399 128.599 430.579 128.609 430.478 128.648C430.375 128.686 430.131 128.682 430.105 128.746ZM427.741 147.051C427.693 147.265 427.568 146.528 427.681 146.692C427.686 146.701 427.744 147.041 427.741 147.051ZM437.25 146.311C437.142 146.639 437.076 146.154 437.152 145.9C437.23 145.646 437.283 146.211 437.25 146.311ZM438.322 146.587C438.188 146.84 438.218 145.78 438.342 146.001C438.349 146.013 438.33 146.572 438.322 146.587ZM433.202 128.782C433.192 128.781 433.181 128.715 433.191 128.713C433.428 128.672 433.45 128.808 433.202 128.782ZM439.365 146.927C439.314 147.066 439.222 146.891 439.285 146.718C439.336 146.579 439.429 146.754 439.365 146.927ZM423.852 148.364C423.851 148.376 423.804 148.386 423.805 148.323C423.807 148.12 423.869 148.177 423.852 148.364ZM441.149 147.199C440.876 147.186 440.573 148.023 440.861 147.975C440.914 147.967 440.806 147.681 440.884 147.615C441.029 147.496 440.998 148.05 441.173 147.786C441.206 147.737 441.166 147.198 441.148 147.198C441.149 147.198 441.149 147.199 441.149 147.199ZM427.831 147.946C427.831 147.956 427.77 147.975 427.767 147.966C427.697 147.736 427.821 147.698 427.831 147.946ZM424.169 146.635C424.156 146.619 424.235 146.5 424.253 146.509C424.594 146.71 424.43 146.955 424.169 146.635ZM432.057 147.926C432.15 148.156 432.233 148.175 432.255 147.871C432.189 147.894 432.122 147.904 432.057 147.926Z" fill="#B231C6"/>
<rect x="1.0747" y="0.928706" width="179.553" height="75.9156" transform="matrix(0.997663 -0.0683228 0.0770342 0.997028 40.2318 69.3264)" stroke="#8A8EB8" stroke-width="2"/>
<rect width="10.0867" height="9.50228" transform="matrix(0.997663 -0.0683228 0.0770342 0.997028 35.9829 65.7363)" fill="white"/>
<rect width="10.0867" height="9.50228" transform="matrix(0.997663 -0.0683228 0.0770342 0.997028 41.8384 141.526)" fill="white"/>
<rect width="10.0867" height="9.50228" transform="matrix(0.997663 -0.0683228 0.0770342 0.997028 215.099 53.47)" fill="white"/>
<rect width="10.0867" height="9.50228" transform="matrix(0.997663 -0.0683228 0.0770342 0.997028 220.955 129.259)" fill="white"/>
<defs>
<filter id="filter0_ddi_97287_2" x="0.248535" y="9.89551" width="266.58" height="181.216" filterUnits="userSpaceOnUse" color-interpolation-filters="sRGB">
<feFlood flood-opacity="0" result="BackgroundImageFix"/>
<feColorMatrix in="SourceAlpha" type="matrix" values="0 0 0 0 0 0 0 0 0 0 0 0 0 0 0 0 0 0 127 0" result="hardAlpha"/>
<feOffset/>
<feGaussianBlur stdDeviation="2.5"/>
<feComposite in2="hardAlpha" operator="out"/>
<feColorMatrix type="matrix" values="0 0 0 0 0.660857 0 0 0 0 1 0 0 0 0 0.1173 0 0 0 0.8 0"/>
<feBlend mode="normal" in2="BackgroundImageFix" result="effect1_dropShadow_97287_2"/>
<feColorMatrix in="SourceAlpha" type="matrix" values="0 0 0 0 0 0 0 0 0 0 0 0 0 0 0 0 0 0 127 0" result="hardAlpha"/>
<feOffset/>
<feGaussianBlur stdDeviation="29"/>
<feComposite in2="hardAlpha" operator="out"/>
<feColorMatrix type="matrix" values="0 0 0 0 0.576471 0 0 0 0 0.862745 0 0 0 0 0.117647 0 0 0 0.56 0"/>
<feBlend mode="normal" in2="effect1_dropShadow_97287_2" result="effect2_dropShadow_97287_2"/>
<feBlend mode="normal" in="SourceGraphic" in2="effect2_dropShadow_97287_2" result="shape"/>
<feColorMatrix in="SourceAlpha" type="matrix" values="0 0 0 0 0 0 0 0 0 0 0 0 0 0 0 0 0 0 127 0" result="hardAlpha"/>
<feOffset/>
<feGaussianBlur stdDeviation="1"/>
<feComposite in2="hardAlpha" operator="arithmetic" k2="-1" k3="1"/>
<feColorMatrix type="matrix" values="0 0 0 0 0.262145 0 0 0 0 0.425706 0 0 0 0 0 0 0 0 1 0"/>
<feBlend mode="normal" in2="shape" result="effect3_innerShadow_97287_2"/>
</filter>
</defs>
</svg>
