<svg width="24" height="24" viewBox="0 0 24 24" fill="none" xmlns="http://www.w3.org/2000/svg">
<path d="M8.62527 17.8711H6.16434V9.92578H8.62527V17.8711ZM8.87082 7.39439C8.87082 6.59885 8.22537 5.95312 7.43024 5.95312C6.63208 5.95312 5.98828 6.59885 5.98828 7.39439C5.98828 8.19022 6.63208 8.83594 7.43024 8.83594C8.22537 8.83594 8.87082 8.19022 8.87082 7.39439ZM17.8359 13.4999C17.8359 11.3671 17.3854 9.78516 14.8938 9.78516C13.6966 9.78516 12.8929 10.3839 12.5648 11.0066H12.5625V9.92578H10.1719V17.8711H12.5625V13.9262C12.5625 12.8931 12.8255 11.8922 14.1061 11.8922C15.3692 11.8922 15.4102 13.0736 15.4102 13.9918V17.8711H17.8359V13.4999ZM21 18.8906V5.10938C21 3.9462 20.0538 3 18.8906 3H5.10938C3.9462 3 3 3.9462 3 5.10938V18.8906C3 20.0538 3.9462 21 5.10938 21H18.8906C20.0538 21 21 20.0538 21 18.8906ZM18.8906 4.40625C19.2783 4.40625 19.5938 4.72169 19.5938 5.10938V18.8906C19.5938 19.2783 19.2783 19.5938 18.8906 19.5938H5.10938C4.72169 19.5938 4.40625 19.2783 4.40625 18.8906V5.10938C4.40625 4.72169 4.72169 4.40625 5.10938 4.40625H18.8906Z" fill="white"/>
</svg>
