<svg width="51" height="50" viewBox="0 0 51 50" fill="none" xmlns="http://www.w3.org/2000/svg">
<circle cx="25.5" cy="25" r="25" fill="url(#paint0_radial_97164_1187)"/>
<path d="M43 14C43 14 42.1101 21.8179 38 24.5C35.2286 26.3085 33.2072 26.9088 30.6579 29.6468C29.4437 31.5671 29.0585 34.0542 28.0813 36C26.4516 34.6201 24.9419 33.0318 23.2565 31.7105C20.0076 30.8428 16.5897 31.2323 13.2633 31.1219C9.68207 30.5249 6.5 28.5 4 25.8562C6.93734 26.656 9.91622 25.3771 12.5722 24.2161C15.0648 23.2088 17.853 22.4976 20.5203 23.2144C21.168 21.0244 22.792 18.9362 25.1345 18.4722C26.8604 18.0723 28.6978 18.8259 29.8365 20.1388C29.9942 20.3916 30.2028 20.1171 30.3454 19.9954C32.3612 18.0591 35.0617 17.041 37.7393 16.4463C42 15.5 43 14 43 14ZM25.3809 20.0398C22.3001 20.6528 20.7091 24.3708 21.7354 27.187C22.8732 29.9967 25.3913 31.9227 27.663 33.7354C28.6119 31.0427 29.8648 28.416 30.2774 25.5676C30.8166 22.741 28.4788 19.3748 25.3809 20.0398Z" fill="white"/>
<path d="M25.7599 23.1596C27.8276 22.7927 28.7643 25.6439 27.7578 27.1285C27.3225 27.9698 26.2282 28.4706 25.3445 28.0226C23.4674 27.0672 23.6827 23.7227 25.7599 23.1596Z" fill="white"/>
<defs>
<radialGradient id="paint0_radial_97164_1187" cx="0" cy="0" r="1" gradientUnits="userSpaceOnUse" gradientTransform="translate(43.1471 41.1765) rotate(-142.046) scale(46.626)">
<stop stop-color="#4F5154"/>
<stop offset="1" stop-color="#2F3237"/>
</radialGradient>
</defs>
</svg>
