<svg width="51" height="50" viewBox="0 0 51 50" fill="none" xmlns="http://www.w3.org/2000/svg">
<circle cx="25.5" cy="25" r="25" fill="url(#paint0_radial_97164_1174)"/>
<path d="M40.4281 23.3888C40.3839 23.1369 40.3733 22.8766 40.3291 22.6246C40.2554 22.1859 40.1648 21.7472 40.0553 21.3147C39.8404 20.4582 39.5497 19.629 39.1853 18.825C38.7704 17.916 38.2775 17.0512 37.6877 16.2408C37.4286 15.884 37.1569 15.5376 36.8683 15.2017C36.5102 14.784 36.1206 14.3935 35.7204 14.0156C35.4044 13.7176 35.0716 13.4384 34.7283 13.1717C34.1427 12.7183 33.5297 12.3069 32.8831 11.9395C32.2722 11.5931 31.6424 11.2929 30.9916 11.0347C30.4123 10.8038 29.8162 10.6128 29.2096 10.4637C28.5966 10.3126 27.1875 10.0523 26.1764 10.0166C25.6477 9.99769 25.1169 9.9851 24.5861 10.0355C24.2765 10.0649 23.9647 10.088 23.6551 10.1194C23.2022 10.1656 22.7536 10.2433 22.3112 10.3441C21.456 10.5351 20.6198 10.7912 19.8089 11.125C19.0021 11.4567 18.2312 11.8576 17.494 12.3195C16.7567 12.7834 16.0637 13.3103 15.4213 13.896C14.8736 14.3956 14.3576 14.9267 13.8921 15.504C13.3613 16.159 12.881 16.8475 12.4682 17.5823C12.0343 18.3527 11.6635 19.1483 11.3644 19.9817C10.88 21.3357 10.6019 22.7317 10.524 24.1634C10.4903 24.7911 10.4882 25.4229 10.543 26.0548C10.5703 26.3781 10.6672 27.4004 10.7452 27.5936C10.9663 27.5936 20.5103 27.5936 20.6556 27.5936C20.8241 27.8476 20.98 28.0869 21.1717 28.2989C21.5782 28.7502 22.0311 29.147 22.5598 29.4535C23.2275 29.8398 23.9458 30.0791 24.7125 30.1504C25.138 30.1903 25.5677 30.1861 25.9953 30.1273C26.5598 30.0497 27.0948 29.8901 27.6066 29.6445C28.2428 29.3359 28.8009 28.9224 29.2749 28.3934C29.6035 28.026 29.8794 27.6271 30.1006 27.1884C30.4144 26.5649 30.5956 25.8995 30.6503 25.2046C30.6819 24.7995 30.6756 24.3901 30.6082 23.9871C30.4945 23.3153 30.2838 22.675 29.9384 22.083C29.5592 21.4365 29.0706 20.8865 28.4681 20.4414C27.9458 20.0531 27.3665 19.7718 26.7388 19.5954C26.3323 19.4821 25.9194 19.4023 25.496 19.4044C25.2917 19.4044 24.5292 19.4338 24.3565 19.4653C23.6888 19.587 23.059 19.8117 22.4797 20.1664C21.9237 20.5065 21.4392 20.9264 21.0369 21.4386C20.7841 21.7598 20.5693 22.104 20.3944 22.4735C20.3628 22.5386 20.346 22.6163 20.2828 22.6603C19.8868 22.6813 15.8489 22.6729 15.6783 22.6498C15.7225 22.3832 15.8047 22.1271 15.8847 21.871C16.1206 21.1237 16.4471 20.4162 16.8494 19.7466C17.1569 19.2344 17.5045 18.7473 17.9089 18.3044C18.2375 17.9433 18.5851 17.597 18.9579 17.28C19.5414 16.7845 20.1733 16.3668 20.8515 16.0162C21.5782 15.6405 22.3449 15.3697 23.1411 15.1807C23.6909 15.0506 24.2491 14.9687 24.8094 14.9414C25.5024 14.9078 26.1933 14.9309 26.882 15.0422C27.3791 15.124 27.8678 15.229 28.3481 15.3781C29.0853 15.6048 29.7846 15.9155 30.446 16.3101C30.9494 16.6103 31.4234 16.9483 31.8678 17.3283C32.308 17.704 32.7146 18.1155 33.0811 18.5605C33.4539 19.0118 33.7804 19.4926 34.069 20.0027C34.4671 20.7101 34.7725 21.4533 34.9894 22.2321C35.1032 22.6351 35.1832 23.0466 35.2443 23.4622C35.3033 23.8716 35.337 24.2831 35.3517 24.6945C35.3686 25.1479 35.3307 25.6014 35.2822 26.0527C35.2485 26.355 35.2022 26.6573 35.139 26.9533C34.9515 27.8245 34.6587 28.6579 34.248 29.4514C33.6961 30.5157 32.9842 31.4562 32.0932 32.2623C31.6277 32.6821 31.1306 33.0579 30.5998 33.3896C30.189 33.6457 29.7593 33.8661 29.317 34.0571C28.6935 34.3258 28.0469 34.5295 27.3791 34.6638C26.9726 34.7457 26.564 34.8171 26.1511 34.8339C25.3507 34.8674 24.5482 34.8716 23.752 34.7268C23.257 34.6365 22.7683 34.5295 22.2923 34.372C21.7362 34.1894 21.1991 33.9648 20.6851 33.6835C20.3039 33.4735 19.9289 33.2531 19.5793 32.9928C19.4213 32.8753 19.2633 32.7598 19.1074 32.6464C18.8778 32.7787 15.0843 35.5413 14.9705 35.6589C14.9853 35.7029 15.0232 35.7344 15.0569 35.7659C15.2317 35.936 15.4108 36.1039 15.594 36.2655C16.0616 36.6812 16.5566 37.0612 17.0727 37.4138C17.7362 37.8673 18.4313 38.264 19.1601 38.602C19.5666 38.7909 19.9795 38.9631 20.4008 39.1184C21.0895 39.3703 21.7952 39.5656 22.5134 39.7125C22.8926 39.7902 23.2717 39.8552 23.6572 39.8972C24.3818 39.9749 25.595 40.061 26.9705 39.9392C27.2949 39.9098 27.6172 39.8615 27.9373 39.8133C28.5819 39.7167 29.2138 39.5635 29.8373 39.3766C30.9747 39.0386 32.0553 38.5642 33.079 37.9659C33.9847 37.4369 34.8273 36.8176 35.6024 36.1102C36.1458 35.6148 36.6556 35.0879 37.119 34.5169C37.6856 33.8199 38.1953 33.0852 38.6271 32.298C39.2106 31.2358 39.6782 30.1273 39.9879 28.956C40.1163 28.471 40.2301 27.9861 40.308 27.4907C40.3565 27.1842 40.3965 26.8756 40.4344 26.567C40.466 26.3109 40.4871 26.0548 40.4955 25.7987C40.5144 25.2697 40.4702 23.6239 40.4281 23.3825V23.3888Z" fill="white"/>
<defs>
<radialGradient id="paint0_radial_97164_1174" cx="0" cy="0" r="1" gradientUnits="userSpaceOnUse" gradientTransform="translate(43.1471 41.1765) rotate(-142.046) scale(46.626)">
<stop stop-color="#F5CD48"/>
<stop offset="1" stop-color="#CEA418"/>
</radialGradient>
</defs>
</svg>
