<svg width="50" height="50" viewBox="0 0 50 50" fill="none" xmlns="http://www.w3.org/2000/svg">
<circle cx="25" cy="25" r="25" fill="url(#paint0_radial_97164_1164)"/>
<path d="M29.659 11C31.4429 11 33.1064 11.3557 34.5287 12.1618C35.951 12.9442 37.0599 14.1534 37.6144 15.647C37.8554 16.3346 38 17.0696 38 17.7808C38 18.3735 37.9036 18.9662 37.6867 19.5115C37.4215 20.4361 36.168 21.1237 35.4447 21.0289C35.059 21.0289 34.4322 20.934 33.8778 20.4362C33.3233 19.9384 33.1786 19.2507 33.1786 18.8477C33.1786 18.6106 33.2026 18.3971 33.2508 18.2311C33.2749 18.1126 33.2991 17.994 33.2991 17.8755C33.2991 17.6859 33.275 17.4725 33.1786 17.2592C32.6723 16.0738 31.9732 15.5047 29.3937 15.3625C27.5134 15.3625 25.7777 15.9078 23.9938 17.0695C22.4992 18.0653 21.6795 19.1084 21.2455 20.2227C21.0768 20.6732 21.0287 21.0289 21.0287 21.3371C21.0528 21.8587 21.1732 22.2144 21.5589 22.6885C22.2073 23.3717 23.0114 23.7921 24.5694 23.8453C24.1994 23.4505 23.9408 22.8626 23.9938 22.4276C23.9938 22.1431 24.042 21.8587 24.1384 21.6927C24.3554 21.0763 24.9099 20.5784 25.392 20.3888C25.8741 20.1754 26.2839 20.1515 26.6696 20.1278C28.6946 20.1278 30.5749 20.5547 32.2383 21.4793C33.6365 22.2379 34.7456 23.3524 35.4447 24.7038C35.9268 25.6758 36.1679 26.7426 36.168 27.8331C36.168 28.8052 35.9749 29.7774 35.6133 30.7495C35.0347 32.2905 34.0705 33.7129 32.7687 34.9932C31.491 36.2734 29.9482 37.3403 28.2366 38.1938C25.7777 39.3793 23.2222 39.9958 20.6669 39.9958C18.6178 40.0432 16.7858 39.6874 15.1947 38.8576C13.5555 38.0278 12.3018 36.6765 11.6027 35.0406C11.217 34.1397 11 33.1914 11 32.2431C11 31.4607 11.1446 30.6782 11.4339 29.9433C11.7955 28.9238 12.8322 28.2599 13.7483 28.3548C14.1099 28.3548 14.7126 28.4259 15.267 28.9C15.8215 29.3742 15.9901 30.0856 15.966 30.4649C15.966 30.7968 15.9178 30.9864 15.8454 31.1998C15.749 31.508 15.7009 31.8163 15.7009 32.1245C15.7009 32.4564 15.7492 32.812 15.8697 33.1439C16.159 33.8789 16.593 34.4005 17.4849 34.8746C18.3528 35.3488 19.4617 35.6096 20.9805 35.6334C23.2706 35.6333 25.4401 34.9458 27.6579 33.4996C29.5383 32.243 30.6474 30.8917 31.1777 29.4455C31.3706 28.9002 31.4671 28.4259 31.4671 27.9991C31.4671 27.6435 31.4188 27.3116 31.2983 26.9797C31.0331 26.2684 30.5991 25.7469 29.7553 25.249C28.8151 24.7512 27.8027 24.4903 26.5974 24.4903H26.4234C26.7902 24.885 27.0428 25.4761 27.0072 25.9128C27.0072 26.2447 26.9348 26.458 26.8625 26.6477C26.6696 27.2404 26.1392 27.7384 25.6571 27.9281C25.175 28.1414 24.7652 28.1888 24.4277 28.1888C24.4277 28.1888 24.4277 28.1888 24.4037 28.1888C22.7644 28.2125 21.1974 27.8332 19.8474 27.0982C18.642 26.4581 17.6294 25.4861 17.0991 24.3718C16.6169 23.4945 16.3518 22.4987 16.3518 21.4793C16.3518 20.6258 16.5206 19.796 16.834 18.9662C17.6777 16.6428 19.4617 14.7223 21.8965 13.2523C24.3072 11.7824 26.9349 11 29.659 11Z" fill="white"/>
<defs>
<radialGradient id="paint0_radial_97164_1164" cx="0" cy="0" r="1" gradientUnits="userSpaceOnUse" gradientTransform="translate(42.6471 41.1765) rotate(-142.046) scale(46.626)">
<stop stop-color="#6F9644"/>
<stop offset="1" stop-color="#4A6B26"/>
</radialGradient>
</defs>
</svg>
