<svg width="17" height="14" viewBox="0 0 17 14" fill="none" xmlns="http://www.w3.org/2000/svg">
<path d="M11.5199 2.07325C10.9395 2.07342 10.3823 2.3014 9.9683 2.70816C9.55425 3.11491 9.31641 3.66793 9.30593 4.24825L9.28393 5.45125C9.28285 5.51594 9.26804 5.57967 9.24049 5.63821C9.21295 5.69675 9.17328 5.74878 9.12413 5.79084C9.07497 5.83291 9.01744 5.86406 8.95535 5.88223C8.89325 5.9004 8.82801 5.90518 8.76393 5.89625L7.57193 5.73425C6.00292 5.52025 4.49993 4.79725 3.05793 3.59625C2.60093 6.12425 3.49293 7.87625 5.64193 9.22725L6.97593 10.0663C7.03909 10.1063 7.09153 10.1612 7.12869 10.2262C7.16585 10.2911 7.18661 10.3641 7.18917 10.4389C7.19173 10.5137 7.17602 10.5879 7.14339 10.6553C7.11076 10.7226 7.0622 10.7809 7.00193 10.8253L5.78593 11.7133C6.50993 11.7583 7.19593 11.7263 7.76593 11.6133C11.3699 10.8933 13.7659 8.18225 13.7659 3.70825C13.7659 3.34325 12.9929 2.07325 11.5199 2.07325ZM7.77793 4.21925C7.79124 3.48292 8.02148 2.76688 8.43982 2.16078C8.85815 1.55468 9.44599 1.08545 10.1297 0.811845C10.8135 0.538242 11.5627 0.47242 12.2837 0.622622C13.0047 0.772823 13.6653 1.13237 14.1829 1.65625C14.7259 1.65325 15.1879 1.79025 16.2219 1.16425C15.9659 2.41625 15.8399 2.96025 15.2939 3.70825C15.2939 9.54625 11.7059 12.3843 8.06593 13.1113C5.56893 13.6093 1.93893 12.7913 0.898926 11.7053C1.42893 11.6633 3.58293 11.4323 4.82893 10.5213C3.77493 9.82625 -0.418074 7.35925 2.33693 0.725254C3.63093 2.23525 4.94193 3.26425 6.27093 3.80925C7.15593 4.17225 7.37293 4.16425 7.77793 4.22025V4.21925Z" fill="white"/>
</svg>
