<svg width="40" height="40" viewBox="0 0 40 40" fill="none" xmlns="http://www.w3.org/2000/svg">
<rect width="40" height="40" rx="20" fill="#DE741D"/>
<path d="M18.6734 24.1037H13.8368L12.8486 27.1798C12.8226 27.2977 12.7186 27.3762 12.6016 27.3631H10.1573C10.0142 27.3631 9.97524 27.2846 10.0142 27.1275L14.2008 14.9931C14.2398 14.8622 14.2788 14.7182 14.3308 14.5611C14.3828 14.2862 14.4088 13.9982 14.4088 13.7102C14.3958 13.6448 14.4478 13.5793 14.5129 13.5663H17.8803C17.9843 13.5663 18.0363 13.6055 18.0493 13.671L22.795 27.1537C22.834 27.2977 22.795 27.3631 22.665 27.3631H19.9476C19.8566 27.3762 19.7656 27.3107 19.7396 27.2191L18.6734 24.1037ZM14.5909 21.4464H17.8933C17.8153 21.1715 17.7113 20.8443 17.5943 20.5039C17.4772 20.1505 17.3602 19.7709 17.2432 19.3782C17.1132 18.9724 16.9962 18.5797 16.8662 18.1739C16.7362 17.7681 16.6191 17.3885 16.5151 17.0089C16.4111 16.6424 16.3201 16.3021 16.2291 15.9879H16.2031C16.0861 16.5508 15.943 17.1136 15.761 17.6765C15.566 18.3048 15.371 18.9593 15.1629 19.6138C14.9809 20.2814 14.7859 20.8966 14.5909 21.4464ZM25.6944 15.857C25.2653 15.8701 24.8492 15.6999 24.5372 15.3989C24.2382 15.0716 24.0821 14.6396 24.0951 14.1946C24.0821 13.7495 24.2512 13.3306 24.5632 13.0296C24.8752 12.7285 25.2913 12.5714 25.7204 12.5714C26.2274 12.5714 26.6175 12.7285 26.9035 13.0296C27.1896 13.3437 27.3456 13.7626 27.3326 14.1946C27.3456 14.6396 27.1896 15.0716 26.8775 15.3989C26.5785 15.713 26.1364 15.8832 25.6944 15.857ZM24.2382 27.2191V17.1398C24.2382 17.0089 24.2902 16.9566 24.4072 16.9566H26.9815C27.0985 16.9566 27.1506 17.022 27.1506 17.1398V27.2191C27.1506 27.3631 27.0985 27.4286 26.9815 27.4286H24.4332C24.3032 27.4286 24.2382 27.35 24.2382 27.2191Z" fill="white"/>
</svg>
