<svg width="40" height="40" viewBox="0 0 40 40" fill="none" xmlns="http://www.w3.org/2000/svg">
<rect width="40" height="40" rx="20" fill="#F47B00"/>
<path d="M19.8228 20.492C19.8658 19.7255 20.2411 19.0503 20.8073 18.5716C21.3626 18.1014 22.11 17.8141 22.9255 17.8141C23.7402 17.8141 24.4876 18.1014 25.0433 18.5716C25.6091 19.0503 25.9844 19.7255 26.0278 20.4912C26.0707 21.2787 25.7542 22.0103 25.1989 22.5526C24.6327 23.1042 23.8273 23.4503 22.9255 23.4503C22.0237 23.4503 21.2167 23.1042 20.6509 22.5526C20.0952 22.0103 19.7794 21.2787 19.8228 20.492Z" fill="white"/>
<path d="M14.8822 22.0443C14.8875 22.3442 14.9831 22.9271 15.1266 23.3822C15.4282 24.3456 15.9397 25.2369 16.6514 26.0224C17.3818 26.8298 18.2812 27.4783 19.32 27.9387C20.4119 28.4223 21.595 28.6687 22.824 28.6667C24.0508 28.665 25.234 28.4137 26.3259 27.9265C27.3647 27.4617 28.2633 26.8103 28.9924 26.0026C29.7038 25.2138 30.2145 24.3209 30.5168 23.3575C30.6688 22.8707 30.7649 22.3766 30.8034 21.881C30.8411 21.3926 30.8253 20.9033 30.756 20.4145C30.6206 19.4621 30.2911 18.5683 29.7836 17.7537C29.3195 17.0051 28.7213 16.3497 28.01 15.7981L28.0116 15.7968L20.833 10.285C20.8266 10.2802 20.8213 10.2749 20.8144 10.2704C20.3434 9.90891 19.5514 9.91012 19.0335 10.2725C18.5098 10.6389 18.4498 11.2448 18.9159 11.627L18.9139 11.629L21.9079 14.0637L12.7823 14.0735H12.7701C12.0158 14.0743 11.2907 14.5692 11.1472 15.1945C10.9997 15.8317 11.512 16.3602 12.2963 16.3631L12.2951 16.3659L16.9205 16.357L8.6667 22.6924C8.65616 22.7001 8.64481 22.7082 8.63508 22.7159C7.85647 23.3121 7.60478 24.3035 8.09521 24.9309C8.59293 25.5689 9.65121 25.5701 10.4379 24.9346L14.9426 21.2479C14.9426 21.2479 14.8769 21.7456 14.8822 22.0443ZM26.4576 23.7109C25.5294 24.6565 24.23 25.1927 22.824 25.1956C21.4159 25.198 20.1164 24.6666 19.1883 23.7227C18.7347 23.2627 18.4016 22.7333 18.1961 22.1695C17.9946 21.6155 17.9164 21.0274 17.9683 20.434C18.0173 19.854 18.19 19.3007 18.4656 18.8002C18.7364 18.3081 19.1092 17.8635 19.5697 17.4874C20.4719 16.7522 21.6206 16.3541 22.8219 16.3525C24.0245 16.3509 25.1724 16.7453 26.0754 17.4781C26.535 17.8526 26.9075 18.2956 27.1783 18.7868C27.4551 19.287 27.6265 19.8382 27.6776 20.4198C27.7287 21.0124 27.6505 21.5997 27.449 22.1541C27.2431 22.7195 26.9112 23.2489 26.4576 23.7109Z" fill="white"/>
</svg>
