<svg width="40" height="40" viewBox="0 0 40 40" fill="none" xmlns="http://www.w3.org/2000/svg">
<rect width="40" height="40" rx="20" fill="#AB0E11"/>
<path d="M21.1803 14.1111C21.3167 14.1111 21.3499 14.1494 21.3717 14.2803L21.5944 16.4561C21.6162 16.576 21.557 16.6318 21.4264 16.6319H15.8405V19.697H20.8743C20.9888 19.697 21.0435 19.7349 21.0436 19.8546V22.059C21.0435 22.1787 20.9841 22.2165 20.8861 22.2165H15.8405V27.1593C15.8404 27.2789 15.7857 27.3336 15.666 27.3337H13.1725C13.0747 27.3336 13.0372 27.2626 13.0371 27.1593V14.2699C13.0371 14.1554 13.0749 14.1111 13.1895 14.1111H21.1803Z" fill="white"/>
<path d="M25.7402 17.3025C25.871 17.3025 25.9094 17.3348 25.9095 17.4652V27.1423C25.9095 27.2731 25.8715 27.3284 25.7246 27.3285H23.291C23.1548 27.3285 23.0892 27.2679 23.0892 27.1371V17.4718C23.0892 17.3572 23.144 17.3025 23.2585 17.3025H25.7402Z" fill="white"/>
<path d="M25.2871 11.4705C25.6525 11.1324 26.237 11.4656 26.1283 11.9509L25.8496 13.184C25.8115 13.3476 25.8549 13.5171 25.9694 13.6371L26.8262 14.5642C27.1638 14.9296 26.8257 15.5077 26.3405 15.3988L25.1074 15.1202C24.9493 15.0821 24.7743 15.1255 24.6543 15.24L23.7272 16.0968C23.3617 16.4346 22.7783 16.1017 22.8874 15.6163L23.166 14.3845C23.2042 14.221 23.1605 14.0514 23.0462 13.9314L22.1895 13.0043C21.8513 12.6388 22.1897 12.0606 22.6751 12.1697L23.9069 12.447C24.0651 12.4852 24.24 12.4418 24.36 12.3272L25.2871 11.4705Z" fill="white"/>
</svg>
