<svg width="40" height="40" viewBox="0 0 40 40" fill="none" xmlns="http://www.w3.org/2000/svg">
<rect width="40" height="40" rx="20" fill="#383838"/>
<path d="M15.7938 17.4999C14.9004 16.8999 14.4474 16.06 14.4474 14.9933C14.4474 14.1666 14.7397 13.4466 15.3263 12.8733C15.913 12.2999 16.6208 11.9933 17.4474 11.9933H22.5672C23.3939 11.9933 24.1137 12.2866 24.687 12.8733C25.2737 13.4599 25.5672 14.1666 25.5672 14.9933C25.5672 16.06 25.1142 16.8866 24.2209 17.4999C25.1142 18.0866 25.5672 18.9133 25.5672 20.0066C25.5672 20.8466 25.2737 21.5533 24.687 22.1266C24.1003 22.7 23.3939 23.0066 22.5672 23.0066H22.5008C21.7275 23.0066 21.0608 22.74 20.5008 22.22V24.9666C20.5008 25.8066 20.1933 26.5133 19.5933 27.1133C18.9933 27.7133 18.2731 28.0066 17.4331 28.0066C16.5931 28.0066 15.913 27.7133 15.3263 27.1266C14.7263 26.54 14.4331 25.8333 14.4331 25.0066C14.4331 23.94 14.8874 23.1133 15.7808 22.4999C14.8874 21.9133 14.4331 21.0866 14.4331 19.9933C14.4331 18.9 14.8874 18.0733 15.7808 17.4866L15.7938 17.4999ZM17.4474 12.9666C16.8874 12.9666 16.4073 13.1666 16.0073 13.5666C15.6073 13.9666 15.4071 14.4333 15.4071 14.9933C15.4071 15.5533 15.6073 16.02 16.0073 16.42C16.4073 16.82 16.8874 17.0199 17.4474 17.0199H19.5138V12.9933H17.4474V12.9666ZM19.5138 17.9933H17.4474C16.8874 17.9933 16.4073 18.18 16.0073 18.5666C15.6073 18.9533 15.4071 19.42 15.4071 19.9933C15.4071 20.5666 15.6073 21.0333 16.0073 21.42C16.4073 21.8066 16.8737 21.9933 17.4071 21.9933H19.5008V17.9933H19.5138ZM17.4474 22.9933H17.4201C16.8734 22.9933 16.407 23.1933 16.0203 23.5933C15.6337 23.9933 15.4201 24.4599 15.4201 25.0199C15.4201 25.5799 15.62 26.0466 16.0334 26.4466C16.4334 26.8466 16.9138 27.0466 17.4604 27.0466C18.0471 27.0466 18.5266 26.8466 18.9266 26.4333C19.3266 26.0333 19.5269 25.54 19.5269 24.9799V23.0066H17.4604L17.4474 22.9933ZM20.5138 16.9933H22.5802C23.1402 16.9933 23.6203 16.7933 24.0203 16.3933C24.4203 15.9933 24.6206 15.5266 24.6206 14.9666C24.6206 14.4066 24.4203 13.9399 24.0203 13.5399C23.6203 13.1399 23.1402 12.94 22.5802 12.94H20.5138V16.9666V16.9933ZM22.5138 17.9933C21.9538 17.9933 21.4734 18.18 21.0868 18.5666C20.7001 18.9533 20.5138 19.42 20.5138 19.9933C20.5138 20.5666 20.7001 21.0333 21.0868 21.42C21.4734 21.8066 21.9405 21.9933 22.5138 21.9933H22.5802C23.1402 21.9933 23.6203 21.8066 24.0203 21.42C24.4203 21.0333 24.6206 20.5666 24.6206 19.9933C24.6206 19.42 24.4203 18.9533 24.0203 18.5666C23.6203 18.18 23.1402 17.9933 22.5802 17.9933H22.5138Z" fill="white"/>
</svg>
