<svg width="18" height="19" viewBox="0 0 18 19" fill="none" xmlns="http://www.w3.org/2000/svg">
<path d="M10.7123 17.0625C10.4106 17.715 9.75019 18.1692 8.98523 18.1692C8.22032 18.1691 7.55986 17.715 7.25812 17.0625H10.7123Z" fill="#7D7ABC"/>
<path d="M11.5791 15.1602C11.5791 15.6378 11.192 16.0249 10.7145 16.0249H7.25595C6.77843 16.0249 6.39132 15.6378 6.39132 15.1602V14.6415H11.5791V15.1602Z" fill="#7D7ABC"/>
<path d="M7.25595 0.461426C7.69241 0.461431 8.11036 0.588597 8.46644 0.816647V8.34691C7.86262 8.18035 7.42888 7.7316 7.42888 7.20559C7.42871 6.91924 7.19649 6.68682 6.9101 6.68681C6.6237 6.68681 6.39149 6.91923 6.39132 7.20559C6.39132 8.29122 7.28391 9.20011 8.46644 9.40897V13.6039H7.25595C6.16506 13.6039 5.23429 12.8166 5.04465 11.7536C3.79533 11.3882 2.93277 10.245 2.93277 8.93486C2.93284 8.23449 3.18112 7.56485 3.63457 7.03266C3.18105 6.50041 2.93277 5.83093 2.93277 5.13046C2.93292 3.82056 3.79545 2.67781 5.04465 2.31247C5.2343 1.2494 6.16504 0.461426 7.25595 0.461426Z" fill="#7D7ABC"/>
<path d="M10.7145 0.461426C11.8054 0.461429 12.7362 1.24943 12.9258 2.31247C14.1751 2.67788 15.0377 3.82112 15.0377 5.13118C15.0376 5.83151 14.7893 6.5005 14.3359 7.03266C14.7893 7.56484 15.0376 8.2345 15.0377 8.93486C15.0377 10.2449 14.1751 11.3882 12.9258 11.7536C12.7362 12.8166 11.8054 13.6039 10.7145 13.6039H9.50401V5.71914C10.1077 5.88567 10.5414 6.33389 10.5416 6.85974C10.5416 7.14624 10.7739 7.37852 11.0604 7.37852C11.3469 7.37851 11.5791 7.14624 11.5791 6.85974C11.5789 5.77426 10.6864 4.86591 9.50401 4.65708V0.816647C9.8601 0.588592 10.278 0.461426 10.7145 0.461426Z" fill="#7D7ABC"/>
<path d="M1.4002 10.4055C1.63851 10.2467 1.96041 10.3113 2.11929 10.5496C2.27821 10.788 2.21358 11.1105 1.97519 11.2694L0.937621 11.9611C0.849367 12.0199 0.749532 12.0482 0.65085 12.0483C0.483244 12.0483 0.318524 11.9669 0.218532 11.817C0.0596116 11.5786 0.12424 11.2561 0.362638 11.0972L1.4002 10.4055Z" fill="#7D7ABC"/>
<path d="M15.8512 10.5496C16.01 10.3112 16.332 10.2468 16.5703 10.4055L17.6078 11.0972C17.8462 11.2561 17.9108 11.5786 17.7519 11.817C17.652 11.9668 17.4872 12.0476 17.3196 12.0476C17.2208 12.0475 17.1212 12.0193 17.0328 11.9604L15.9953 11.2687C15.7569 11.1097 15.6923 10.788 15.8512 10.5496Z" fill="#7D7ABC"/>
<path d="M1.68769 6.34168C1.9742 6.34168 2.20648 6.57395 2.20648 6.86046C2.20628 7.1468 1.97408 7.37924 1.68769 7.37924H0.65013C0.363744 7.37924 0.131542 7.1468 0.131348 6.86046C0.131348 6.57395 0.363624 6.34168 0.65013 6.34168H1.68769Z" fill="#7D7ABC"/>
<path d="M17.3203 6.34168C17.6068 6.34168 17.8391 6.57395 17.8391 6.86046C17.8389 7.1468 17.6067 7.37924 17.3203 7.37924H16.2828C15.9964 7.37924 15.7642 7.1468 15.764 6.86046C15.764 6.57395 15.9963 6.34168 16.2828 6.34168H17.3203Z" fill="#7D7ABC"/>
<path d="M0.218532 1.90321C0.377498 1.66489 0.699336 1.60094 0.937621 1.75982L1.97519 2.45153C2.21358 2.61045 2.27821 2.93222 2.11929 3.17062C2.01934 3.32051 1.85458 3.40191 1.68697 3.40191C1.58829 3.40185 1.48848 3.37351 1.4002 3.31473L0.362638 2.62302C0.12424 2.4641 0.0596116 2.14161 0.218532 1.90321Z" fill="#7D7ABC"/>
<path d="M17.0328 1.7591C17.2712 1.60032 17.593 1.66492 17.7519 1.90321C17.9108 2.14161 17.8462 2.46338 17.6078 2.6223L16.5703 3.31401C16.4819 3.3729 16.3823 3.40116 16.2835 3.40119C16.1159 3.40119 15.9512 3.3205 15.8512 3.17062C15.6922 2.93222 15.7569 2.60973 15.9953 2.45081L17.0328 1.7591Z" fill="#7D7ABC"/>
</svg>
