<svg width="19" height="16" viewBox="0 0 19 16" fill="none" xmlns="http://www.w3.org/2000/svg">
<path d="M9.71057 8.77106C9.74367 8.18045 10.0329 7.66011 10.4692 7.29125C10.8971 6.92896 11.473 6.70752 12.1015 6.70752C12.7292 6.70752 13.3052 6.92896 13.7334 7.29125C14.1694 7.66011 14.4586 8.18046 14.492 8.77044C14.5251 9.37729 14.2812 9.94104 13.8533 10.3589C13.417 10.784 12.7964 11.0507 12.1015 11.0507C11.4065 11.0507 10.7847 10.784 10.3487 10.3589C9.92045 9.94104 9.67715 9.37729 9.71057 8.77106Z" fill="#7D7ABC"/>
<path d="M5.90373 9.96696C5.90779 10.1981 5.9815 10.6472 6.09206 10.998C6.32443 11.7404 6.71859 12.4272 7.26705 13.0324C7.82987 13.6546 8.52293 14.1543 9.32344 14.5091C10.1649 14.8817 11.0765 15.0716 12.0235 15.0701C12.969 15.0688 13.8807 14.8752 14.7221 14.4998C15.5226 14.1415 16.215 13.6396 16.7769 13.0172C17.325 12.4094 17.7186 11.7213 17.9516 10.9789C18.0687 10.6038 18.1427 10.2231 18.1724 9.8411C18.2014 9.46475 18.1893 9.08776 18.1358 8.7111C18.0315 7.97713 17.7776 7.28845 17.3866 6.66067C17.0289 6.08381 16.5679 5.57878 16.0198 5.1537L16.0211 5.15277L10.4894 0.905429C10.4844 0.901681 10.4803 0.897627 10.475 0.894191C10.1121 0.615596 9.50178 0.616534 9.10262 0.895754C8.69909 1.1781 8.65286 1.64502 9.01204 1.93954L9.01048 1.94111L11.3177 3.81726L4.28554 3.82475H4.27617C3.69492 3.82538 3.13617 4.20672 3.0256 4.68864C2.91191 5.17962 3.30669 5.58689 3.91105 5.58908L3.91012 5.59127L7.47443 5.5844L1.11413 10.4664C1.10601 10.4723 1.09727 10.4786 1.08977 10.4845C0.489783 10.9439 0.29583 11.7079 0.67375 12.1914C1.05729 12.683 1.87279 12.6839 2.47902 12.1942L5.95026 9.35324C5.95026 9.35324 5.89967 9.73678 5.90373 9.96696ZM14.8236 11.2512C14.1083 11.9799 13.107 12.3931 12.0235 12.3953C10.9385 12.3972 9.93716 11.9877 9.22193 11.2603C8.87243 10.9058 8.61569 10.4979 8.45734 10.0635C8.30211 9.63653 8.24183 9.18334 8.28181 8.72609C8.3196 8.27915 8.45266 7.85282 8.66504 7.4671C8.87368 7.08794 9.16102 6.74532 9.51583 6.45548C10.2111 5.88892 11.0962 5.58221 12.022 5.58096C12.9487 5.57971 13.8332 5.88361 14.5291 6.44829C14.8832 6.73688 15.1703 7.07826 15.3789 7.4568C15.5922 7.84221 15.7243 8.26697 15.7637 8.71516C15.803 9.17178 15.7428 9.62435 15.5875 10.0516C15.4289 10.4873 15.1731 10.8952 14.8236 11.2512Z" fill="#7D7ABC"/>
</svg>
