<svg width="13" height="19" viewBox="0 0 13 19" fill="none" xmlns="http://www.w3.org/2000/svg">
<path d="M1.83158 6.43762C0.843227 5.7738 0.342018 4.84445 0.342018 3.66432C0.342018 2.74972 0.665343 1.95313 1.31441 1.31881C1.96348 0.684496 2.74653 0.345215 3.66113 0.345215H9.32551C10.2401 0.345215 11.0365 0.669744 11.6708 1.31881C12.3198 1.96788 12.6446 2.74972 12.6446 3.66432C12.6446 4.84445 12.1434 5.75904 11.155 6.43762C12.1434 7.08669 12.6446 8.00129 12.6446 9.21092C12.6446 10.1403 12.3198 10.9221 11.6708 11.5564C11.0217 12.1907 10.2401 12.53 9.32551 12.53H9.25204C8.39644 12.53 7.65886 12.235 7.0393 11.6597V14.6985C7.0393 15.6279 6.69903 16.4097 6.03521 17.0735C5.37139 17.7373 4.57463 18.0619 3.64528 18.0619C2.71593 18.0619 1.96348 17.7373 1.31441 17.0883C0.650592 16.4392 0.326172 15.6574 0.326172 14.7428C0.326172 13.5626 0.828821 12.648 1.81718 11.9695C0.828821 11.3204 0.326172 10.4058 0.326172 9.19617C0.326172 7.98654 0.828821 7.07193 1.81718 6.42286L1.83158 6.43762ZM3.66113 1.42207C3.04156 1.42207 2.51039 1.64336 2.06784 2.0859C1.62529 2.52845 1.40373 3.04476 1.40373 3.66432C1.40373 4.28389 1.62529 4.80019 2.06784 5.24274C2.51039 5.68529 3.04156 5.90656 3.66113 5.90656H5.94733V1.45158H3.66113V1.42207ZM5.94733 6.98343H3.66113C3.04156 6.98343 2.51039 7.18995 2.06784 7.61775C1.62529 8.04555 1.40373 8.56185 1.40373 9.19617C1.40373 9.83049 1.62529 10.3468 2.06784 10.7746C2.51039 11.2024 3.0264 11.4089 3.61647 11.4089H5.93293V6.98343H5.94733ZM3.66113 12.5153H3.63087C3.02606 12.5153 2.51004 12.7365 2.08224 13.1791C1.65445 13.6216 1.41814 14.1379 1.41814 14.7575C1.41814 15.3771 1.63935 15.8934 2.09665 16.3359C2.5392 16.7785 3.07072 16.9998 3.67553 16.9998C4.3246 16.9998 4.85508 16.7785 5.29763 16.3212C5.74018 15.8786 5.96174 15.3328 5.96174 14.7133V12.53H3.67553L3.66113 12.5153ZM7.0537 5.87706H9.33991C9.95948 5.87706 10.4907 5.65578 10.9332 5.21323C11.3757 4.77068 11.5973 4.25438 11.5973 3.63481C11.5973 3.01525 11.3757 2.49894 10.9332 2.05639C10.4907 1.61385 9.95948 1.39258 9.33991 1.39258H7.0537V5.84755V5.87706ZM9.26644 6.98343C8.64687 6.98343 8.11536 7.18995 7.68756 7.61775C7.25976 8.04555 7.0537 8.56185 7.0537 9.19617C7.0537 9.83049 7.25976 10.3468 7.68756 10.7746C8.11536 11.2024 8.63212 11.4089 9.26644 11.4089H9.33991C9.95948 11.4089 10.4907 11.2024 10.9332 10.7746C11.3757 10.3468 11.5973 9.83049 11.5973 9.19617C11.5973 8.56185 11.3757 8.04555 10.9332 7.61775C10.4907 7.18995 9.95948 6.98343 9.33991 6.98343H9.26644Z" fill="#7D7ABC"/>
</svg>
